<?xml version="1.0" standalone="no"?>
<!DOCTYPE svg PUBLIC "-//W3C//DTD SVG 1.1//EN" "http://www.w3.org/Graphics/SVG/1.1/DTD/svg11.dtd" >
<svg xmlns="http://www.w3.org/2000/svg">
<metadata></metadata>
<defs>
<font id="kiroextra_light_italic" horiz-adv-x="1081" >
<font-face units-per-em="2048" ascent="1649" descent="-399" />
<missing-glyph horiz-adv-x="440" />
<glyph unicode="&#xfb01;" horiz-adv-x="1015" d="M117 956l4 27q3 23 26 23h140l20 127q25 159 117.5 242t245.5 83q149 0 250 -82q17 -14 2 -35l-17 -20q-15 -22 -35 -2q-72 63 -204 63q-236 0 -277 -264l-18 -112h295q25 0 22 -27l-6 -27q-3 -22 -27 -22h-297l-143 -907q-3 -23 -27 -23h-34q-26 0 -23 27l143 903h-135 q-25 0 -22 26zM702 27l152 956q3 23 27 23h34q26 0 23 -27l-152 -956q-3 -23 -26 -23h-35q-26 0 -23 27z" />
<glyph unicode="&#xfb02;" horiz-adv-x="1036" d="M117 956l4 27q3 23 26 23h140l18 110q26 165 122 253.5t251 88.5q151 0 258 -84l6 37q3 23 27 23h35q25 0 22 -27l-219 -1384q-3 -23 -27 -23h-35q-25 0 -22 27l199 1253q-80 102 -248 102q-237 0 -287 -280l-16 -96h311q26 0 23 -27l-5 -27q-3 -22 -26 -22h-314 l-145 -907q-3 -23 -27 -23h-34q-26 0 -23 27l143 903h-135q-25 0 -22 26z" />
<glyph unicode="&#xfb03;" horiz-adv-x="1591" d="M117 956l4 27q3 23 26 23h140l14 90q25 163 122.5 252.5t254.5 89.5q170 0 283 -107q95 127 284 127q149 0 250 -82q17 -14 2 -35l-16 -20q-15 -22 -35 -2q-72 63 -205 63q-235 0 -276 -264l-19 -112h295q26 0 23 -27l-7 -27q-3 -22 -26 -22h-297l-143 -907 q-3 -23 -27 -23h-35q-25 0 -22 27l143 903h-492l-143 -907q-3 -23 -27 -23h-34q-26 0 -23 27l143 903h-135q-25 0 -22 26zM371 1006h491l21 127q15 77 35 124q-83 105 -242 105q-120 0 -194.5 -73t-98.5 -208zM1278 27l152 956q3 23 26 23h35q25 0 22 -27l-151 -956 q-3 -23 -27 -23h-35q-25 0 -22 27z" />
<glyph unicode="&#xfb04;" horiz-adv-x="1611" d="M117 956l4 27q3 23 26 23h140l14 90q25 163 122.5 252.5t254.5 89.5q177 0 285 -111q98 131 290 131q151 0 258 -84l7 37q3 23 26 23h35q26 0 23 -27l-220 -1384q-3 -23 -26 -23h-35q-26 0 -23 27l199 1253q-79 102 -248 102q-236 0 -286 -280l-17 -96h311q26 0 23 -27 l-4 -27q-3 -22 -27 -22h-313l-145 -907q-3 -23 -27 -23h-35q-25 0 -22 27l143 903h-492l-143 -907q-3 -23 -27 -23h-34q-26 0 -23 27l143 903h-135q-25 0 -22 26zM371 1006h491l19 110q12 80 39 139q-82 107 -244 107q-120 0 -194.5 -73t-98.5 -208z" />
<glyph horiz-adv-x="0" />
<glyph horiz-adv-x="682" />
<glyph unicode=" "  horiz-adv-x="440" />
<glyph unicode="&#x09;" horiz-adv-x="440" />
<glyph unicode="&#xa0;" horiz-adv-x="440" />
<glyph unicode="!" horiz-adv-x="434" d="M74 39q0 32 23 55t55 23q29 0 46 -17.5t17 -46.5q0 -33 -21.5 -55.5t-56.5 -22.5q-26 0 -44.5 19t-18.5 45zM166 332l47 411l94 594q3 23 27 23h35q25 0 22 -27l-94 -590l-82 -413q-3 -15 -16 -15h-19q-17 0 -14 17z" />
<glyph unicode="&#x22;" horiz-adv-x="684" d="M242 965l43 372q3 23 24 23h39q27 0 21 -27l-72 -370q-3 -17 -21 -17h-16q-21 0 -18 19zM539 965l43 372q3 23 24 23h39q27 0 21 -27l-72 -370q-3 -17 -21 -17h-16q-21 0 -18 19z" />
<glyph unicode="#" d="M47 440l8 25q6 20 27 20h207l117 349h-199q-27 0 -21 28l9 25q6 20 26 20h209l117 350q6 21 26 21h27q28 0 18 -29l-112 -342h309l117 350q6 21 26 21h29q29 0 19 -29l-113 -342h194q27 0 21 -28l-8 -25q-6 -20 -27 -20h-205l-116 -349h194q27 0 21 -28l-9 -25 q-6 -20 -26 -20h-205l-131 -392q-6 -20 -27 -20h-28q-29 0 -19 29l127 383h-309l-131 -392q-6 -20 -27 -20h-26q-29 0 -19 29l127 383h-198q-28 0 -19 28zM365 485h309l117 349h-310z" />
<glyph unicode="$" d="M84 217q-8 20 10 35l27 16q19 14 35 -8q87 -152 303 -164l82 506q-184 23 -259 85t-75 187q0 170 118.5 275.5t319.5 112.5l19 127q3 20 24 20h31q23 0 20 -25l-20 -124q223 -18 309 -175q8 -19 -10 -34l-27 -17q-19 -14 -35 8q-70 125 -249 140l-80 -510 q183 -23 258.5 -84.5t75.5 -184.5q0 -165 -121 -274q-119 -107 -318 -113l-20 -139q-3 -20 -25 -20h-31q-23 0 -20 24l20 137q-257 15 -362 199zM293 889q0 -93 60.5 -141.5t199.5 -65.5l80 502q-152 -7 -246 -88.5t-94 -206.5zM535 94q153 7 246 88.5t93 206.5 q0 88 -60.5 136t-199.5 67z" />
<glyph unicode="%" horiz-adv-x="1269" d="M112.5 8q-3.5 8 4.5 19l1007 1239q9 12 27 12h37q13 0 16.5 -8t-4.5 -19l-1005 -1239q-9 -12 -27 -12h-39q-13 0 -16.5 8zM131 842q0 29 6 59l25 156q38 246 264 246q100 0 154.5 -50t54.5 -143q0 -31 -4 -59l-23 -156q-37 -248 -264 -248q-103 0 -158 50.5t-55 144.5z M207 846q0 -131 141 -131q85 0 128.5 44.5t60.5 145.5l22 144q4 28 4 57q0 129 -141 129q-85 0 -128 -45t-61 -146l-22 -141q-4 -28 -4 -57zM682 170q0 29 6 59l25 156q37 246 264 246q100 0 154.5 -50t54.5 -143q0 -31 -4 -59l-23 -156q-37 -248 -264 -248 q-103 0 -158 50.5t-55 144.5zM758 174q0 -131 141 -131q85 0 127.5 44.5t60.5 145.5l23 144q4 28 4 57q0 129 -141 129q-85 0 -128.5 -44.5t-60.5 -145.5l-22 -142q-4 -28 -4 -57z" />
<glyph unicode="&#x26;" horiz-adv-x="1179" d="M51 313q0 150 73 263t232 206q-69 112 -69 228q0 173 107 273.5t292 100.5q177 0 275 -98q19 -16 0 -35l-23 -26q-16 -19 -37 2q-80 80 -215 80q-149 0 -232 -77t-83 -216q0 -126 112 -262l371 -457q104 139 188 348q6 21 31 12l33 -12q21 -9 12 -31q-103 -247 -211 -383 l162 -198q11 -12 7 -21.5t-21 -9.5h-54q-19 0 -30 14l-121 150q-183 -189 -424 -189q-171 0 -273 92t-102 246zM139 322q0 -122 80.5 -195.5t216.5 -73.5q199 0 363 176l-396 488q-264 -153 -264 -395z" />
<glyph unicode="'" horiz-adv-x="387" d="M242 965l43 372q3 23 24 23h39q27 0 21 -27l-72 -370q-3 -17 -21 -17h-16q-21 0 -18 19z" />
<glyph unicode="(" horiz-adv-x="638" d="M180 387q0 241 92 494q95 258 293 467q12 12 31 12h33q16 0 17 -12t-11 -23q-191 -218 -281 -471q-88 -248 -88 -473q0 -306 135 -537q19 -28 -16 -28h-29q-18 0 -28 16q-148 248 -148 555z" />
<glyph unicode=")" horiz-adv-x="638" d="M22 -172q-1 12 11 22q190 217 280 469q88 248 88 476q0 305 -135 536q-19 29 17 29h28q19 0 29 -17q147 -246 147 -555q0 -241 -94 -495q-92 -254 -291 -465q-12 -12 -30 -12h-33q-16 0 -17 12z" />
<glyph unicode="*" horiz-adv-x="964" d="M160 1118l10 29q9 22 31 16l350 -133l6 379q0 25 25 25h30q28 0 25 -27l-37 -375l358 131q25 6 31 -16l8 -29q9 -25 -16 -31l-369 -104l222 -297q16 -22 -7 -35l-30 -18q-21 -12 -33 6l-193 315l-227 -315q-15 -21 -35 -6l-22 18q-20 17 -4 33l249 297l-356 106 q-25 6 -16 31z" />
<glyph unicode="+" d="M57 559l4 29q3 22 27 22h438l68 437q3 22 27 22h28q26 0 23 -27l-68 -432h430q26 0 23 -26l-4 -29q-3 -23 -27 -23h-436l-68 -436q-3 -22 -26 -22h-29q-26 0 -23 26l68 432h-432q-26 0 -23 27z" />
<glyph unicode="," horiz-adv-x="430" d="M49 -168q-11 14 4 23q67 52 88 131q-57 3 -57 59q0 34 21.5 53t54.5 19q29 0 46 -18.5t17 -49.5q0 -60 -37.5 -123t-103.5 -110q-15 -12 -25 4z" />
<glyph unicode="-" horiz-adv-x="669" d="M72 541l6 32q3 23 26 23h498q26 0 23 -27l-7 -32q-3 -23 -26 -23h-498q-25 0 -22 27z" />
<glyph unicode="." horiz-adv-x="430" d="M70 37q0 35 23.5 57.5t56.5 22.5q29 0 46 -17.5t17 -46.5q0 -32 -23 -55t-55 -23q-29 0 -47 17.5t-18 44.5z" />
<glyph unicode="/" horiz-adv-x="710" d="M-2.5 8.5q-4.5 8.5 2.5 20.5l707 1314q14 17 30 17h31q14 0 18.5 -8.5t-2.5 -20.5l-706 -1315q-13 -16 -31 -16h-31q-14 0 -18.5 8.5z" />
<glyph unicode="0" d="M100 315q0 55 9 107l69 442q67 439 475 439q181 0 278 -86.5t97 -251.5q0 -63 -8 -107l-70 -442q-68 -441 -475 -441q-183 0 -279 87t-96 253zM186 326q0 -273 293 -273q171 0 263.5 93t123.5 292l66 408q8 47 8 106q0 273 -293 273q-169 0 -261.5 -92.5t-123.5 -290.5 l-65 -408q-11 -79 -11 -108z" />
<glyph unicode="1" d="M348 940q-12 21 8 33l441 293q15 12 34 12h21q25 0 22 -27l-194 -1228q-3 -23 -27 -23h-37q-25 0 -22 27l178 1128l-377 -248q-20 -14 -33 8z" />
<glyph unicode="2" d="M76 27l4 28q4 19 14 29l617 526q134 116 186 197q49 79 49 180q0 110 -73.5 174t-200.5 64q-227 0 -365 -205q-14 -20 -35 -8l-26 20q-18 15 -6 35q163 236 442 236q160 0 255 -83.5t95 -224.5q0 -132 -57 -221q-59 -92 -209 -221l-559 -473v-2h661q26 0 23 -27l-4 -28 q-3 -23 -27 -23h-762q-25 0 -22 27z" />
<glyph unicode="3" d="M96 164q-12 20 6 35l25 18q20 14 33 -8q99 -156 342 -156q186 0 293.5 90t107.5 244q0 118 -84 182t-239 64h-119q-26 0 -23 26l4 29q3 23 27 23h109q190 0 289.5 73.5t99.5 214.5q0 108 -75 167t-212 59q-228 0 -367 -160q-15 -21 -34 -2l-21 20q-16 16 0 35 q170 185 432 185q170 0 266.5 -79.5t96.5 -219.5q0 -267 -275 -332v-2q100 -29 155.5 -103.5t55.5 -179.5q0 -191 -131.5 -301.5t-359.5 -110.5q-287 0 -402 189z" />
<glyph unicode="4" d="M68 340l8 39q4 19 14 29l807 858q12 12 31 12h43q25 0 22 -27l-137 -860h135q26 0 23 -26l-6 -29q-3 -23 -27 -23h-137l-45 -290q-3 -23 -27 -23h-37q-25 0 -22 27l45 286h-668q-25 0 -22 27zM186 391h584l119 748h-2z" />
<glyph unicode="5" d="M86 164q-12 21 8 35l29 18q20 14 33 -8q92 -156 338 -156q185 0 294 105.5t109 283.5q0 135 -80 213t-215 78q-201 0 -340 -127q-18 -10 -35 -8l-14 2q-24 3 -18 29l141 626q3 23 26 23h666q26 0 23 -27l-7 -28q-3 -23 -26 -23h-610l-109 -489h2q129 100 317 100 q165 0 265 -100q102 -99 102 -262q0 -216 -135 -345q-132 -129 -363 -129q-286 0 -401 189z" />
<glyph unicode="6" d="M117 322q0 36 6 77l78 484q31 198 156 309t321 111q237 0 348 -156q12 -20 -6 -35l-29 -22q-21 -15 -33 4q-88 131 -282 131q-335 0 -393 -365l-37 -225h2q126 176 368 176q159 0 256 -100q99 -102 99 -262q0 -214 -131 -345q-132 -129 -346 -129q-172 0 -274.5 94.5 t-102.5 252.5zM203 326q0 -127 80 -200t217 -73q174 0 278.5 107t104.5 286q0 131 -77 209t-206 78q-152 0 -259 -94t-132 -248q-6 -35 -6 -65z" />
<glyph unicode="7" d="M205 999l39 256q3 23 26 23h848q26 0 23 -27l-6 -39q-3 -15 -11 -28l-794 -1168q-10 -16 -29 -16h-45q-38 0 -16 31l796 1169h-719l-30 -205q-3 -22 -27 -22h-33q-25 0 -22 26z" />
<glyph unicode="8" d="M66 303q0 145 82 242t231 133v2q-180 70 -180 250q0 171 121.5 272t328.5 101q180 0 281.5 -79.5t101.5 -219.5q0 -127 -71.5 -214.5t-200.5 -119.5v-2q207 -74 207 -281q0 -192 -130 -302t-356 -110q-196 0 -305.5 87t-109.5 241zM152 311q0 -125 86 -191.5t247 -66.5 q183 0 289.5 90.5t106.5 245.5q0 116 -86 180t-244 64q-185 0 -292 -86.5t-107 -235.5zM283 932q0 -104 80 -162.5t223 -58.5q166 0 263 76.5t97 209.5q0 109 -77.5 168.5t-223.5 59.5q-164 0 -263 -81t-99 -212z" />
<glyph unicode="9" d="M111 133q-12 19 4 35l24 22q19 19 35 -6q94 -131 291 -131q331 0 389 365l37 225h-2q-126 -176 -365 -176q-159 0 -256 100q-98 101 -98 262q0 216 129 345q132 129 348 129q172 0 273.5 -93.5t101.5 -251.5q0 -36 -6 -79l-78 -484q-31 -199 -155.5 -309.5t-321.5 -110.5 q-228 0 -350 158zM254 829q0 -130 78 -207t207 -77q150 0 258.5 93.5t134.5 248.5q6 38 6 69q0 124 -80 196.5t-217 72.5q-179 0 -283 -107.5t-104 -288.5z" />
<glyph unicode=":" horiz-adv-x="430" d="M70 37q0 35 23.5 57.5t56.5 22.5q29 0 46 -17.5t17 -46.5q0 -32 -23 -55t-55 -23q-29 0 -47 17.5t-18 44.5zM201 862q0 35 23.5 57.5t56.5 22.5q29 0 46 -17t17 -46q0 -35 -22.5 -56.5t-55.5 -21.5q-29 0 -47 17t-18 44z" />
<glyph unicode=";" horiz-adv-x="430" d="M49 -168q-11 14 4 23q67 52 88 131q-57 3 -57 59q0 34 21.5 53t54.5 19q29 0 46 -18.5t17 -49.5q0 -60 -37.5 -123t-103.5 -110q-15 -12 -25 4zM211 862q0 35 23.5 57.5t56.5 22.5q29 0 46 -17t17 -46q0 -35 -22.5 -56.5t-55.5 -21.5q-29 0 -47 17t-18 44z" />
<glyph unicode="&#x3c;" d="M96 557l4 29q3 19 21 28l930 420q13 6 20.5 0t5.5 -20l-6 -35q-3 -19 -20 -27l-856 -385l731 -383q17 -9 14 -30l-4 -29q-3 -31 -31 -16l-792 417q-20 10 -17 31z" />
<glyph unicode="=" d="M59 332l4 28q3 23 27 23h871q25 0 22 -27l-4 -28q-3 -23 -27 -23h-870q-26 0 -23 27zM131 786l4 29q3 23 27 23h870q26 0 23 -27l-4 -29q-3 -22 -27 -22h-870q-26 0 -23 26z" />
<glyph unicode="&#x3e;" d="M29 129l6 35q3 17 20 26l856 385l-731 383q-17 9 -14 31l4 29q3 31 31 16l792 -418q20 -10 17 -30l-4 -29q-3 -20 -21 -29l-930 -419q-13 -6 -20.5 0t-5.5 20z" />
<glyph unicode="?" horiz-adv-x="913" d="M176 1149q165 235 438 235q160 0 255.5 -86t95.5 -229q0 -137 -64 -227t-219 -172q-124 -66 -177.5 -127t-64.5 -148l-8 -57q-3 -23 -24 -23h-31q-26 0 -23 27l11 66q18 105 77.5 178t190.5 145q136 75 191 151t55 189q0 110 -72 173t-199 63q-227 0 -368 -205 q-16 -22 -35 -6l-25 18q-18 15 -4 35zM274 37q0 35 23.5 57.5t56.5 22.5q29 0 46.5 -17.5t17.5 -46.5q0 -33 -21.5 -55.5t-56.5 -22.5q-29 0 -47.5 17.5t-18.5 44.5z" />
<glyph unicode="@" horiz-adv-x="1486" d="M106 440q0 262 105 488q56 124 145 227q92 104 235.5 166.5t315.5 62.5q244 0 380 -151.5t136 -413.5q0 -204 -65 -385q-33 -101 -102.5 -161t-161.5 -60q-141 0 -156 135h-2q-88 -135 -258 -135q-108 0 -168.5 52t-60.5 143q0 124 81 194t226 70h207l4 28q8 36 8 84 q0 164 -176 164q-107 0 -191 -78q-17 -17 -33 2l-16 19q-15 18 2 31q112 92 246 92q244 0 244 -223q0 -29 -7 -76l-43 -269q-1 -10 -2 -21.5t-1.5 -17.5t-0.5 -10q0 -118 103 -118q69 0 122.5 59t80.5 156q49 172 49 327q0 235 -118 366.5t-333 131.5q-158 0 -289 -59.5 t-213 -157.5q-81 -100 -131 -217q-90 -214 -90 -445q0 -256 138.5 -393t396.5 -137q219 0 374 104q19 13 31 -8l12 -24q10 -20 -12 -29q-177 -109 -411 -109q-284 0 -442.5 156.5t-158.5 439.5zM522 414q0 -135 166 -135q96 0 164 62.5t86 178.5l14 86h-192 q-113 0 -175.5 -50t-62.5 -142z" />
<glyph unicode="A" horiz-adv-x="1181" d="M4 29l684 1312q10 19 29 19h47q24 0 27 -23l264 -1308q2 -5 2 -10q1 -6 -3 -11q-6 -8 -20 -8h-39q-23 0 -26 23l-58 290h-663l-150 -293q-9 -20 -30 -20h-45q-24 0 -24 14q0 6 5 15zM289 393h606l-168 852h-2z" />
<glyph unicode="B" horiz-adv-x="1148" d="M111 27l206 1310q3 23 27 23h367q401 0 401 -295q0 -307 -285 -371v-2q217 -55 217 -280q0 -210 -123.5 -311t-381.5 -101h-406q-22 0 -22 22v5zM207 80h340q209 0 309 82t100 252q0 123 -76.5 180t-238.5 57h-344zM309 731h303q211 0 310.5 78t99.5 244q0 117 -77.5 172 t-239.5 55h-308z" />
<glyph unicode="C" horiz-adv-x="1093" d="M113 348q0 45 10 123l67 426q76 487 527 487q318 0 397 -260q1 -5 1 -9q0 -14 -15 -21l-33 -11q-27 -9 -33 17q-64 205 -323 205q-368 0 -439 -435l-59 -385q-10 -62 -10 -127q0 -303 317 -303q249 0 381 217q16 25 35 11l33 -19q18 -12 6 -33q-157 -256 -461 -256 q-195 0 -298 95t-103 278z" />
<glyph unicode="D" horiz-adv-x="1208" d="M111 27l206 1310q3 23 27 23h404q409 0 409 -354q0 -38 -10 -113l-70 -432q-74 -461 -536 -461h-408q-22 0 -22 22v5zM207 80h336q386 0 450 407l62 390q10 75 10 112q0 291 -326 291h-342z" />
<glyph unicode="E" horiz-adv-x="1099" d="M111 27l206 1310q3 23 27 23h774q23 0 23 -22v-5l-4 -30q-3 -23 -27 -23h-713l-88 -553h619q25 0 22 -27l-6 -30q-3 -23 -26 -23h-621l-90 -567h706q26 0 23 -27l-4 -30q-3 -23 -25 -23h-774q-22 0 -22 22v5z" />
<glyph unicode="F" horiz-adv-x="1024" d="M111 27l206 1310q3 23 27 23h754q22 0 22 -22v-5l-4 -30q-3 -23 -26 -23h-693l-88 -559h598q26 0 23 -27l-6 -30q-3 -23 -27 -23h-602l-96 -618q-3 -23 -27 -23h-39q-22 0 -22 22v5z" />
<glyph unicode="G" horiz-adv-x="1167" d="M113 352q0 44 10 119l67 426q76 487 533 487q325 0 407 -260q1 -5 1 -9q0 -14 -15 -21l-31 -13q-25 -9 -34 17q-68 207 -332 207q-192 0 -302 -107.5t-145 -329.5l-59 -381q-10 -78 -10 -120q0 -312 329 -312q191 0 296 106t143 333l20 116h-332q-25 0 -22 27l4 31 q3 22 27 22h393q25 0 22 -26l-32 -199q-43 -248 -171 -369t-354 -121q-201 0 -307 96.5t-106 280.5z" />
<glyph unicode="H" horiz-adv-x="1277" d="M111 27l206 1310q3 23 27 23h39q26 0 23 -27l-97 -606h742l96 610q3 23 27 23h38q23 0 23 -22v-5l-207 -1310q-3 -23 -27 -23h-38q-26 0 -23 27l98 620h-741l-98 -624q-3 -23 -27 -23h-39q-22 0 -22 22v5z" />
<glyph unicode="I" horiz-adv-x="448" d="M111 27l206 1310q3 23 27 23h39q23 0 24 -22q0 -3 -1 -5l-207 -1310q-3 -23 -27 -23h-39q-22 0 -22 22v5z" />
<glyph unicode="J" horiz-adv-x="1056" d="M20 209q-3 8 -3 14q0 13 14 19l30 16q23 13 35 -12q83 -191 318 -191q176 0 275.5 102t131.5 314l137 866q3 23 27 23h37q22 0 22 -22v-5l-139 -887q-74 -471 -495 -471q-288 0 -390 234z" />
<glyph unicode="K" horiz-adv-x="1107" d="M111 27l206 1310q3 23 27 23h39q26 0 23 -27l-97 -612l729 627q15 12 31 12h64q17 0 21 -10q1 -2 0 -5q0 -8 -9 -16l-756 -639l569 -659q11 -12 8 -21.5t-20 -9.5h-55q-20 0 -31 14l-559 656l-102 -647q-3 -23 -27 -23h-39q-22 0 -22 22v5z" />
<glyph unicode="L" horiz-adv-x="1013" d="M111 27l206 1310q3 23 27 23h39q26 0 23 -27l-199 -1253h678q22 0 22 -22v-5l-4 -30q-3 -23 -26 -23h-744q-22 0 -22 22v5z" />
<glyph unicode="M" horiz-adv-x="1654" d="M111 27l206 1310q3 23 27 23h78q23 0 29 -21l319 -1218l698 1222q10 17 31 17h88q23 0 23 -22v-5l-207 -1310q-3 -23 -27 -23h-39q-25 0 -22 27l192 1210h-2l-708 -1221q-10 -16 -31 -16h-27q-22 0 -28 20l-320 1217h-2l-192 -1214q-3 -23 -27 -23h-37q-22 0 -22 22v5z " />
<glyph unicode="N" horiz-adv-x="1277" d="M111 27l206 1310q3 23 27 23h51q19 0 29 -19l532 -1194h2l189 1190q3 23 27 23h36q23 0 23 -22v-5l-207 -1310q-3 -23 -27 -23h-43q-19 0 -28 18l-539 1211h-2l-190 -1206q-3 -23 -27 -23h-37q-22 0 -22 22v5z" />
<glyph unicode="O" horiz-adv-x="1191" d="M113 354q0 42 10 117l67 426q76 487 529 487q203 0 310.5 -97t107.5 -281q0 -34 -11 -117l-67 -426q-73 -488 -527 -488q-203 0 -311 97.5t-108 281.5zM203 367q0 -312 334 -312q191 0 297 106t141 328l61 385q11 86 11 119q0 312 -332 312q-191 0 -298.5 -106.5 t-142.5 -328.5l-61 -385q-10 -78 -10 -118z" />
<glyph unicode="P" horiz-adv-x="1101" d="M111 27l206 1310q3 23 27 23h375q407 0 407 -332q0 -232 -129 -344.5t-397 -112.5h-315l-86 -548q-3 -23 -27 -23h-39q-22 0 -22 22v5zM297 651h311q220 0 324 90.5t104 280.5q0 133 -79.5 195.5t-245.5 62.5h-314z" />
<glyph unicode="Q" horiz-adv-x="1191" d="M113 354q0 42 10 117l65 428q73 485 531 485q203 0 310.5 -97t107.5 -281q0 -34 -11 -117l-67 -426q-67 -437 -438 -483q-1 -11 -2 -24t-2 -22t-1 -14q0 -160 170 -160q85 0 170 60q23 20 35 -8l15 -27q10 -19 -9 -35q-97 -69 -219 -69q-123 0 -188.5 63t-65.5 184 q0 37 2 47q-201 2 -307 98.5t-106 280.5zM203 367q0 -312 334 -312q191 0 297 106t141 328l61 385q11 86 11 119q0 312 -332 312q-192 0 -300 -106.5t-143 -328.5l-59 -385q-10 -78 -10 -118z" />
<glyph unicode="R" horiz-adv-x="1161" d="M111 27l206 1310q3 23 27 23h361q411 0 411 -330q0 -207 -98.5 -317t-302.5 -133l270 -551q16 -29 -18 -29h-47q-20 0 -29 18l-270 555h-336l-86 -550q-3 -23 -27 -23h-39q-22 0 -22 22v5zM297 653h297q222 0 327 90t105 279q0 133 -80.5 195.5t-247.5 62.5h-301z" />
<glyph unicode="S" horiz-adv-x="1034" d="M49 186q-5 8 -5 15q0 10 11 18l31 23q22 15 37 -9q102 -178 364 -178q172 0 281 92t109 244q0 105 -70.5 160.5t-249.5 87.5q-207 41 -287 109q-80 71 -80 206q0 197 132 314q131 116 352 116q275 0 377 -184q3 -8 3 -14q0 -12 -12 -19l-30 -18q-23 -16 -35 8 q-77 148 -307 148q-173 0 -282 -93.5t-109 -242.5q0 -107 71.5 -164.5t249.5 -89.5q202 -37 283.5 -107.5t81.5 -206.5q0 -190 -134 -309q-132 -117 -350 -117q-312 0 -432 211z" />
<glyph unicode="T" horiz-adv-x="976" d="M172 1307l4 30q3 23 27 23h848q22 0 22 -22v-5l-6 -30q-3 -23 -27 -23h-378l-199 -1257q-3 -23 -27 -23h-39q-25 0 -22 27l198 1253h-378q-23 0 -23 22v5z" />
<glyph unicode="U" horiz-adv-x="1204" d="M137 340q0 41 10 113l140 884q3 23 26 23h39q26 0 23 -27l-137 -866q-11 -86 -11 -117q0 -295 318 -295q182 0 283 101.5t133 316.5l135 864q3 23 26 23h37q23 0 23 -22v-5l-140 -887q-77 -471 -503 -471q-195 0 -298.5 93.5t-103.5 271.5z" />
<glyph unicode="V" horiz-adv-x="1144" d="M199 1333v5q0 22 22 22h41q24 0 27 -23l225 -1208h2l610 1212q10 19 29 19h41q23 0 23 -13q0 -6 -5 -16l-663 -1313q-9 -18 -29 -18h-47q-23 0 -26 23z" />
<glyph unicode="W" horiz-adv-x="1736" d="M203 1333v5q0 22 22 22h45q22 0 25 -23l137 -1190h2l522 1194q10 19 29 19h35q21 0 24 -23l148 -1198h2l518 1202q10 19 29 19h45q23 0 23 -13q0 -6 -5 -16l-575 -1313q-9 -18 -29 -18h-57q-22 0 -25 23l-139 1163h-2l-510 -1168q-9 -18 -29 -18h-51q-22 0 -25 23z" />
<glyph unicode="X" horiz-adv-x="1122" d="M14 10q-1 3 -2 5q0 7 8 16l523 665l-297 635q-16 29 18 29h45q19 0 29 -19l266 -575l447 580q11 14 30 14h52q17 0 21 -10q1 -3 1 -5q0 -7 -8 -16l-498 -635l312 -665q16 -29 -19 -29h-45q-20 0 -29 18l-280 607l-473 -611q-11 -14 -31 -14h-49q-17 0 -21 10z" />
<glyph unicode="Y" horiz-adv-x="1046" d="M178 1331q-5 9 -5 15q0 14 24 14h45q18 0 28 -19l295 -641l500 646q11 14 31 14h51q17 0 21 -10q1 -2 1 -5q0 -7 -8 -16l-565 -721l-92 -585q-3 -23 -27 -23h-39q-25 0 -22 27l94 591z" />
<glyph unicode="Z" horiz-adv-x="1052" d="M12 27l8 41q3 15 13 28l944 1184h-711q-25 0 -22 27l6 30q3 23 26 23h797q23 0 23 -22v-5l-9 -41q-3 -16 -12 -28l-948 -1184h754q25 0 22 -27l-4 -30q-3 -23 -27 -23h-837q-23 0 -23 22v5z" />
<glyph unicode="[" horiz-adv-x="638" d="M100 -158l236 1495q3 23 26 23h302q25 0 22 -27l-2 -22q-3 -23 -27 -23h-245l-219 -1401h237q26 0 23 -26l-2 -23q-3 -22 -27 -22h-301q-26 0 -23 26z" />
<glyph unicode="\" horiz-adv-x="710" d="M203 1333q-6 27 22 27h27q24 0 27 -23l299 -1310q6 -27 -23 -27h-27q-23 0 -26 23z" />
<glyph unicode="]" horiz-adv-x="638" d="M-10 -158l2 23q3 22 26 22h246l219 1401h-237q-26 0 -23 27l2 22q3 23 27 23h303q26 0 23 -27l-236 -1495q-3 -22 -27 -22h-303q-25 0 -22 26z" />
<glyph unicode="^" d="M66 537.5q-5 9.5 6 21.5l549 705q11 14 30 14h33q20 0 29 -18l323 -703q16 -29 -18 -29h-33q-19 0 -29 19l-294 643l-504 -647q-12 -15 -31 -15h-39q-17 0 -22 9.5z" />
<glyph unicode="_" horiz-adv-x="1024" d="M-109 -193l9 58h1024l-9 -58h-1024z" />
<glyph unicode="`" horiz-adv-x="1024" d="M456.5 1452q4.5 8 18.5 8h37q20 0 29 -18l127 -254q12 -27 -17 -27h-26q-17 0 -27 17l-139 254q-7 12 -2.5 20z" />
<glyph unicode="a" horiz-adv-x="923" d="M53 236q0 160 104 247.5t298 87.5h280l8 58q9 47 9 94q0 231 -248 231q-135 0 -250 -106q-20 -20 -35 2l-20 27q-16 20 4 34q131 119 311 119q159 0 242.5 -75.5t83.5 -221.5q0 -47 -9 -90l-47 -289q-59 -379 -417 -379q-149 0 -231.5 69t-82.5 192zM137 238 q0 -187 236 -187q147 0 225 78t107 250l18 117h-264q-154 0 -238 -67t-84 -191z" />
<glyph unicode="b" horiz-adv-x="997" d="M119 268q0 53 8 92l166 1051q3 23 26 23h35q26 0 23 -27l-84 -520h2q98 143 299 143q155 0 236 -74t81 -217q0 -51 -8 -92l-45 -293q-59 -379 -414 -379q-158 0 -241.5 75t-83.5 218zM205 279q0 -228 246 -228q146 0 223.5 78.5t103.5 249.5l39 254q8 41 8 96 q0 225 -245 225q-276 0 -328 -325l-39 -254q-8 -41 -8 -96z" />
<glyph unicode="c" horiz-adv-x="843" d="M88 272q0 54 8 93l43 286q56 379 412 379q185 0 278 -106q7 -8 7 -17t-9 -18l-22 -21q-22 -16 -37 2q-78 84 -219 84q-143 0 -222.5 -79.5t-105.5 -249.5l-39 -248q-8 -41 -8 -94q0 -232 254 -232q131 0 242 105q20 20 35 -2l16 -21q15 -18 -2 -35q-129 -123 -303 -123 q-159 0 -243.5 75.5t-84.5 221.5z" />
<glyph unicode="d" horiz-adv-x="997" d="M86 272q0 33 8 88l45 293q58 377 412 377q213 0 272 -156h2l84 537q3 23 27 23h35q22 0 22 -22v-5l-168 -1053q-59 -379 -411 -379q-158 0 -243 77t-85 220zM174 279q0 -228 246 -228q146 0 224 78.5t104 249.5l40 254q9 43 9 88q0 233 -244 233q-145 0 -225.5 -79 t-106.5 -246l-39 -254q-8 -41 -8 -96z" />
<glyph unicode="e" horiz-adv-x="925" d="M88 270q0 53 8 92l43 291q55 377 408 377q155 0 238 -75.5t83 -217.5q0 -49 -8 -90l-24 -149q-3 -23 -27 -23h-612l-15 -98q-8 -39 -8 -92q0 -234 270 -234q137 0 248 117q18 21 37 2l21 -23q15 -15 0 -34q-135 -138 -316 -138q-168 0 -257 75t-89 220zM209 551h553 l14 82q8 41 8 96q0 227 -241 227q-141 0 -218.5 -78.5t-103.5 -248.5z" />
<glyph unicode="f" horiz-adv-x="647" d="M117 956l4 27q3 23 26 23h140l20 127q49 325 336 325q124 0 195 -47q16 -9 16 -21q0 -7 -6 -16l-17 -24q-15 -21 -32 -7q-51 39 -158 39q-209 0 -252 -264l-18 -112h336q28 0 22 -27l-6 -27q-6 -22 -27 -22h-338l-143 -907q-3 -23 -27 -23h-34q-26 0 -23 27l143 903h-135 q-22 0 -22 21v5z" />
<glyph unicode="g" horiz-adv-x="997" d="M66 -195l20 21q16 16 35 -2q95 -103 268 -103q134 0 215.5 76.5t104.5 218.5l20 129h-2q-94 -143 -299 -143q-154 0 -235.5 75t-81.5 216q0 55 8 94l41 262q58 381 411 381q158 0 243 -77t85 -220q0 -35 -8 -90l-103 -651q-26 -162 -132 -253t-271 -91q-205 0 -319 123 q-10 7 -10 16t10 18zM197 305q0 -227 245 -227q279 0 328 328l37 225q8 41 8 94q0 229 -248 229q-145 0 -222.5 -79t-104.5 -248l-35 -226q-8 -41 -8 -96z" />
<glyph unicode="h" horiz-adv-x="1026" d="M88 27l219 1384q3 23 27 23h35q25 0 22 -27l-82 -516h2q92 139 295 139q150 0 231 -73t81 -212q0 -43 -9 -90l-100 -632q-3 -23 -27 -23h-34q-26 0 -23 27l98 616q8 39 8 88q0 223 -241 223q-270 0 -320 -317l-98 -614q-3 -23 -27 -23h-34q-23 0 -23 22v5z" />
<glyph unicode="i" horiz-adv-x="401" d="M88 27l152 956q3 23 26 23h35q26 0 23 -27l-152 -956q-3 -23 -27 -23h-34q-23 0 -23 22v5zM264 1288q0 32 21 52t53 20q26 0 42.5 -17t16.5 -43q0 -32 -20 -53.5t-51 -21.5q-26 0 -44 18.5t-18 44.5z" />
<glyph unicode="j" horiz-adv-x="401" d="M-164 -301l4 27q3 22 25 22h2q177 0 207 189l166 1046q3 23 26 23h35q26 0 23 -27l-166 -1042q-44 -265 -289 -265h-10q-23 0 -23 22v5zM264 1288q0 32 21 52t53 20q26 0 42.5 -17t16.5 -43q0 -32 -20 -53.5t-51 -21.5q-26 0 -44 18.5t-18 44.5z" />
<glyph unicode="k" horiz-adv-x="866" d="M88 27l219 1384q3 23 27 23h35q25 0 22 -27l-137 -866l532 454q18 11 29 11h51q17 0 21 -10q1 -2 1 -5q0 -8 -9 -16l-541 -463l410 -481q11 -12 7.5 -21.5t-20.5 -9.5h-49q-20 0 -31 14l-409 484l-74 -475q-3 -23 -27 -23h-34q-23 0 -23 22v5z" />
<glyph unicode="l" horiz-adv-x="401" d="M88 27l219 1384q3 23 27 23h35q22 0 23 -22q0 -3 -1 -5l-219 -1384q-3 -23 -27 -23h-34q-23 0 -23 22v5z" />
<glyph unicode="m" horiz-adv-x="1562" d="M76 27l102 637q58 366 377 366q233 0 283 -176h2q86 176 311 176q146 0 223.5 -72t77.5 -208q0 -54 -8 -93l-101 -634q-3 -23 -26 -23h-35q-25 0 -22 27l98 616q8 39 8 92q0 219 -223 219q-127 0 -197 -75.5t-96 -237.5l-98 -618q-3 -23 -27 -23h-35q-25 0 -22 27l98 616 q8 41 8 94q0 217 -221 217q-127 0 -198 -76.5t-97 -238.5l-98 -616q-3 -23 -27 -23h-35q-22 0 -22 22v5z" />
<glyph unicode="n" horiz-adv-x="1015" d="M76 27l102 635q58 368 404 368q156 0 239.5 -74t83.5 -213q0 -49 -8 -88l-100 -632q-3 -23 -27 -23h-35q-25 0 -22 27l98 616q8 39 8 90q0 221 -241 221q-139 0 -216.5 -77t-103.5 -242l-98 -612q-3 -23 -27 -23h-35q-22 0 -22 22v5z" />
<glyph unicode="o" horiz-adv-x="966" d="M86 272q0 33 8 88l45 293q58 377 414 377q159 0 243.5 -75.5t84.5 -217.5q0 -29 -9 -90l-47 -295q-58 -377 -411 -377q-159 0 -243.5 75.5t-84.5 221.5zM174 279q0 -228 246 -228q145 0 222 78.5t103 249.5l41 254q9 46 9 94q0 227 -246 227q-145 0 -223.5 -78.5 t-104.5 -246.5l-39 -254q-8 -41 -8 -96z" />
<glyph unicode="p" horiz-adv-x="997" d="M25 -301l151 950q62 381 414 381q158 0 241.5 -76t83.5 -219q0 -53 -8 -92l-45 -289q-62 -379 -405 -379q-219 0 -275 160h-2l-69 -440q-3 -23 -27 -23h-37q-22 0 -22 22v5zM209 283q0 -232 246 -232q145 0 222 78.5t103 249.5l41 252q8 41 8 96q0 227 -245 227 q-145 0 -223.5 -79t-104.5 -248l-39 -252q-8 -39 -8 -92z" />
<glyph unicode="q" horiz-adv-x="997" d="M86 268q0 51 8 92l47 289q59 381 412 381q158 0 243 -77t85 -220q0 -29 -9 -90l-149 -948q-3 -23 -27 -23h-34q-26 0 -23 27l68 420h-2q-95 -144 -299 -144q-155 0 -237.5 75.5t-82.5 217.5zM174 279q0 -228 246 -228q279 0 328 328l40 252q9 47 9 96q0 227 -248 227 q-145 0 -223.5 -79t-104.5 -248l-39 -252q-8 -41 -8 -96z" />
<glyph unicode="r" horiz-adv-x="739" d="M76 27l106 659q56 344 359 344q133 0 223 -72q11 -11 11 -20q0 -7 -7 -14l-18 -25q-15 -18 -37 -2q-66 57 -172 57q-122 0 -189 -71t-90 -221l-102 -639q-3 -23 -27 -23h-35q-22 0 -22 22v5z" />
<glyph unicode="s" horiz-adv-x="841" d="M39 109q-7 9 -7 17q0 9 9 17l25 21q18 15 32 -2q85 -111 283 -111q139 0 218 65t79 181q0 78 -57 118.5t-193 59.5q-158 20 -223.5 74t-65.5 158q0 149 107.5 236t290.5 87q176 0 274 -98q9 -10 9 -19q0 -8 -7 -14l-22 -22q-16 -16 -35 0q-77 77 -224 77 q-146 0 -227.5 -63t-81.5 -176q0 -72 53 -109t187 -57q165 -25 232 -80t67 -164q0 -152 -103 -241t-280 -89q-236 0 -340 134z" />
<glyph unicode="t" horiz-adv-x="714" d="M117 956l4 27q3 23 26 23h140l39 256q3 22 26 22h35q26 0 23 -27l-39 -251h336q23 0 23 -18q0 -4 -1 -9l-6 -27q-3 -22 -27 -22h-338l-104 -658q-6 -35 -6 -59q0 -162 176 -162q70 0 137 43q25 15 37 -6l12 -22q8 -19 -8 -35q-83 -56 -188 -56q-121 0 -185.5 59 t-64.5 169q0 31 6 65l104 662h-135q-22 0 -22 21v5z" />
<glyph unicode="u" horiz-adv-x="1003" d="M117 262q0 38 6 84l102 637q3 23 27 23h35q25 0 22 -27l-98 -621q-8 -39 -8 -90q0 -217 235 -217q136 0 211 74.5t101 236.5l100 621q3 23 27 23h32q23 0 23 -22v-5l-103 -639q-58 -365 -397 -365q-154 0 -234.5 73t-80.5 214z" />
<glyph unicode="v" horiz-adv-x="903" d="M133 979q-1 5 -1 9q0 18 22 18h36q24 0 27 -23l176 -872h2l461 878q10 17 29 17h35q14 0 18 -10q2 -4 1 -8q0 -6 -3 -13l-504 -957q-9 -18 -31 -18h-41q-23 0 -26 23z" />
<glyph unicode="w" horiz-adv-x="1384" d="M133 979v5q0 22 23 22h37q21 0 24 -21l115 -864h2l397 866q9 19 29 19h31q23 0 26 -23l121 -860h2l391 864q9 19 29 19h35q23 0 23 -16q0 -5 -3 -13l-442 -959q-9 -18 -29 -18h-47q-24 0 -27 23l-114 829h-2l-385 -834q-9 -18 -29 -18h-47q-24 0 -27 23z" />
<glyph unicode="x" horiz-adv-x="917" d="M4 10q-2 3 -2 7q0 7 6 14l408 491l-234 455q-16 29 19 29h41q18 0 28 -19l205 -409l338 413q12 15 31 15h45q14 0 19 -10q2 -3 2 -6q0 -7 -7 -15l-381 -459l252 -487q16 -29 -18 -29h-41q-20 0 -29 18l-223 443l-367 -447q-11 -14 -30 -14h-43q-13 0 -19 10z" />
<glyph unicode="y" horiz-adv-x="1026" d="M78 -229q-7 8 -7 16q0 9 9 18l20 23q20 20 35 -2q95 -102 266 -102q274 0 320 292l20 125h-2q-92 -139 -293 -139q-152 0 -231.5 72.5t-79.5 212.5q0 53 8 92l97 604q3 23 26 23h35q26 0 23 -27l-95 -586q-8 -39 -8 -90q0 -225 242 -225q270 0 319 319l92 586q3 23 27 23 h35q22 0 22 -22v-5l-157 -987q-26 -162 -131.5 -253t-270.5 -91q-207 0 -321 123z" />
<glyph unicode="z" horiz-adv-x="856" d="M8 27l6 36q3 16 13 29l710 838h-528q-26 0 -23 26l4 27q3 23 27 23h608q23 0 23 -22v-5l-6 -39q-3 -16 -13 -29l-712 -835h571q26 0 23 -27l-4 -26q-3 -23 -27 -23h-649q-23 0 -23 22v5z" />
<glyph unicode="{" horiz-adv-x="659" d="M111 578l4 24q3 23 30 23q73 0 113 43t53 139l47 287q23 142 98 204t224 62h4q26 0 23 -27l-2 -22q-3 -23 -27 -23h-2q-108 0 -162.5 -46t-71.5 -152l-45 -277q-30 -192 -164 -227v-2q101 -27 101 -150q0 -30 -6 -67l-45 -277q-4 -28 -4 -61q0 -75 41 -108.5t133 -33.5 q23 0 20 -26l-2 -23q-3 -22 -27 -22h-12q-242 0 -242 198q0 24 7 64l47 287q6 35 6 59q0 127 -117 127q-25 0 -22 27z" />
<glyph unicode="|" horiz-adv-x="540" d="M111 -303l270 1716q3 21 25 21h28q24 0 21 -25l-271 -1716q-3 -21 -24 -21h-29q-23 0 -20 25z" />
<glyph unicode="}" horiz-adv-x="659" d="M-10 -158l2 23q3 22 26 22h2q108 0 162.5 46.5t71.5 152.5l45 276q30 193 164 228v2q-101 27 -101 149q0 24 7 68l45 276q4 28 4 62q0 75 -41 108t-133 33q-24 0 -21 27l2 22q3 23 27 23h12q242 0 242 -199q0 -29 -6 -63l-47 -287q-7 -40 -7 -59q0 -127 117 -127 q26 0 23 -27l-4 -25q-3 -22 -31 -22q-73 0 -113 -43t-53 -139l-47 -287q-23 -142 -98 -204t-224 -62h-4q-25 0 -22 26z" />
<glyph unicode="~" d="M61 510q138 178 297 178q117 0 232 -86q101 -76 186 -76q121 0 236 148q14 20 37 4l20 -16q21 -12 4 -35q-138 -178 -295 -178q-116 0 -231 86q-100 75 -187 75q-123 0 -237 -147q-14 -20 -37 -4l-20 16q-21 12 -5 35z" />
<glyph unicode="&#xa1;" horiz-adv-x="434" d="M104 27l95 589l82 414q3 14 16 14h16q18 0 15 -16l-45 -412l-95 -593q-3 -23 -26 -23h-35q-26 0 -23 27zM279 1307q0 32 22.5 54.5t54.5 22.5q29 0 46.5 -18t17.5 -45q0 -32 -23 -55t-55 -23q-29 0 -46 17.5t-17 46.5z" />
<glyph unicode="&#xa2;" d="M172 330q0 53 8 92l41 254q61 394 438 397l19 127q3 21 24 21h33q24 0 21 -25l-21 -127q165 -15 246 -108q15 -18 -2 -35l-25 -23q-20 -16 -34 4q-64 76 -195 88l-143 -901q128 9 241 113q19 19 35 -4l16 -23q12 -21 -2 -35q-129 -117 -303 -129l-20 -139q-3 -20 -25 -20 h-32q-24 0 -21 24l21 137q-320 18 -320 312zM258 340q0 -231 246 -246l143 903q-154 -6 -237 -90.5t-109 -257.5l-35 -215q-8 -41 -8 -94z" />
<glyph unicode="&#xa3;" d="M98 27l4 28q3 21 17 29q106 97 152 191.5t46 218.5q0 11 -4 57h-135q-25 0 -22 27l4 26q3 23 26 23h113q-1 4 -4.5 15.5t-6.5 23.5t-7 24q-31 105 -31 178q0 199 123 316q122 119 329 119q263 0 369 -177q8 -19 -12 -34l-25 -17q-23 -13 -35 8q-77 142 -301 142 q-166 0 -264 -97.5t-98 -261.5q0 -52 29 -168q5 -18 18 -71h432q26 0 23 -27l-4 -27q-3 -22 -27 -22h-412q0 -4 1 -23t1 -24q0 -247 -186 -424v-2h649q26 0 23 -27l-4 -28q-3 -23 -27 -23h-731q-26 0 -23 27z" />
<glyph unicode="&#xa4;" d="M74 221q-14 15 2 31l188 164q-49 76 -49 180q0 162 111 276l-121 148q-15 14 2 31l22 20q18 15 31 -2l125 -145q103 71 227 71q141 0 232 -88l186 164q18 15 31 -2l20 -22q15 -18 -2 -31l-188 -164q49 -76 49 -182q0 -161 -113 -277l123 -145q14 -14 -2 -31l-24 -20 q-14 -15 -31 2l-123 145q-101 -70 -227 -70q-142 0 -232 84l-188 -161q-18 -15 -31 2zM287 598q0 -113 71.5 -183.5t188.5 -70.5q131 0 225 94q96 96 96 230q0 116 -71.5 187t-188.5 71q-132 0 -227 -95q-94 -94 -94 -233z" />
<glyph unicode="&#xa5;" d="M111 311l4 29q3 20 24 20h340l33 213h-334q-23 0 -20 25l4 29q3 20 24 20h326l-301 602q-16 29 18 29h43q20 0 29 -18l272 -560l453 564q11 14 31 14h47q14 0 19 -9.5t-5 -21.5l-493 -600h315q24 0 21 -24l-5 -29q-3 -21 -22 -21h-336l-33 -213h328q23 0 20 -24l-4 -29 q-3 -20 -22 -20h-334l-41 -264q-3 -23 -27 -23h-36q-26 0 -23 27l41 260h-336q-23 0 -20 24z" />
<glyph unicode="&#xa6;" horiz-adv-x="540" d="M111 -303l104 672q3 20 25 20h28q24 0 21 -24l-105 -672q-3 -21 -24 -21h-29q-23 0 -20 25zM274 741l107 672q3 21 25 21h28q24 0 21 -25l-107 -672q-3 -20 -24 -20h-29q-24 0 -21 24z" />
<glyph unicode="&#xa7;" horiz-adv-x="1144" d="M49 -164q-12 21 6 33l27 18q20 14 33 -8q96 -158 354 -158q164 0 270 86q107 82 107 216q0 88 -71.5 131.5t-250.5 62.5q-209 20 -297 83t-88 189q0 135 73 228.5t210 136.5v2q-160 53 -160 211q0 174 127 283q126 108 334 108q260 0 362 -164q14 -19 -8 -32l-24 -17 q-19 -14 -35 8q-79 131 -301 131q-165 0 -271 -86q-102 -82 -102 -217q0 -91 71 -134.5t251 -63.5q210 -23 295.5 -83.5t85.5 -185.5q0 -278 -289 -366v-2q168 -49 168 -213q0 -173 -127 -279q-124 -106 -334 -106q-305 0 -416 188zM219 504q0 -104 84 -154q87 -47 311 -74 q160 17 256.5 104.5t96.5 219.5q0 105 -88 154q-82 48 -314 69q-154 -14 -250 -101.5t-96 -217.5z" />
<glyph unicode="&#xa8;" horiz-adv-x="1024" d="M416 1286q0 31 19.5 52.5t49.5 21.5q26 0 43 -18t17 -44q0 -30 -20.5 -50.5t-51.5 -20.5q-25 0 -41 17t-16 42zM733 1286q0 31 20 52.5t50 21.5q26 0 42.5 -17.5t16.5 -44.5q0 -30 -20.5 -50.5t-50.5 -20.5q-25 0 -41.5 17t-16.5 42z" />
<glyph unicode="&#xa9;" horiz-adv-x="1589" d="M115 588q0 328 233 561q232 235 559 235q277 0 451 -174q176 -173 176 -438q0 -327 -236 -563q-234 -234 -559 -234q-275 0 -450 172q-174 174 -174 441zM182 590q0 -237 158 -395q156 -156 405 -156q295 0 506 217q215 218 215 514q0 241 -157 395q-156 156 -406 156 q-294 0 -508 -217q-213 -219 -213 -514zM539 500q0 28 6 63l37 238q44 270 292 270q174 0 226 -137q9 -22 -15 -29l-18 -6q-22 -6 -31 12q-38 97 -166 97q-184 0 -221 -224l-33 -213q-6 -34 -6 -63q0 -156 166 -156q118 0 189 105q12 18 30 6l17 -12q18 -12 6 -31 q-88 -131 -248 -131q-111 0 -171 54.5t-60 156.5z" />
<glyph unicode="&#xaa;" horiz-adv-x="706" d="M96 696q0 123 81.5 189.5t230.5 66.5h206l7 41q6 37 6 70q0 170 -185 170q-102 0 -186 -78q-19 -16 -33 4l-16 21q-12 19 6 34q115 89 238 89t189.5 -60t66.5 -172q0 -26 -7 -70l-34 -221q-46 -291 -322 -291q-117 0 -182.5 55t-65.5 152zM174 698q0 -139 174 -139 q108 0 165 57t77 183l14 86h-192q-113 0 -175.5 -48.5t-62.5 -138.5z" />
<glyph unicode="&#xab;" horiz-adv-x="808" d="M78 485q-10 21 4 35l280 350q12 15 31 15h29q17 0 21 -9.5t-7 -21.5l-282 -358l170 -346q16 -29 -19 -29h-24q-20 0 -29 18zM422 485q-10 21 4 35l281 350q12 15 30 15h29q17 0 21 -9.5t-7 -21.5l-282 -358l170 -346q16 -29 -19 -29h-24q-20 0 -29 18z" />
<glyph unicode="&#xac;" d="M80 696l4 29q3 23 27 23h946q25 0 22 -27l-78 -488q-3 -22 -26 -22h-29q-25 0 -22 27l69 432h-891q-25 0 -22 26z" />
<glyph unicode="&#xad;" horiz-adv-x="669" d="M72 541l6 32q3 23 26 23h498q26 0 23 -27l-7 -32q-3 -23 -26 -23h-498q-25 0 -22 27z" />
<glyph unicode="&#xae;" horiz-adv-x="1589" d="M115 588q0 328 233 561q232 235 559 235q277 0 451 -174q176 -173 176 -438q0 -327 -236 -563q-234 -234 -559 -234q-275 0 -450 172q-174 174 -174 441zM182 590q0 -237 158 -395q156 -156 405 -156q295 0 506 217q215 218 215 514q0 241 -157 395q-156 156 -406 156 q-294 0 -508 -217q-213 -219 -213 -514zM549 328l113 708q3 21 24 21h199q233 0 233 -178q0 -110 -56 -179t-159 -82l137 -288q9 -27 -16 -27h-31q-16 0 -26 16l-133 293h-170l-46 -288q-3 -21 -24 -21h-25q-23 0 -20 25zM674 676h149q224 0 224 190q0 127 -168 127h-154z " />
<glyph unicode="&#xaf;" horiz-adv-x="1024" d="M385 1276l4 24q3 23 25 23h458q26 0 23 -27l-4 -24q-3 -23 -27 -23h-456q-26 0 -23 27z" />
<glyph unicode="&#xb0;" horiz-adv-x="714" d="M147 979q0 137 95 229q95 95 231 95q115 0 186.5 -71.5t71.5 -184.5q0 -136 -96 -232q-95 -92 -229 -92q-115 0 -187 71.5t-72 184.5zM225 979q0 -80 52.5 -131t134.5 -51q101 0 170 69q71 71 71 176q0 84 -52 135.5t-134 51.5q-99 0 -170 -74q-72 -72 -72 -176z" />
<glyph unicode="&#xb1;" d="M-8 27l4 28q3 23 27 23h907q25 0 22 -27l-4 -28q-3 -23 -26 -23h-908q-25 0 -22 27zM86 627l6 28q3 23 27 23h416l61 391q3 23 27 23h28q26 0 23 -27l-62 -387h414q26 0 23 -27l-5 -28q-3 -23 -26 -23h-418l-61 -393q-3 -23 -27 -23h-29q-25 0 -22 27l61 389h-413 q-26 0 -23 27z" />
<glyph unicode="&#xb2;" horiz-adv-x="675" d="M143 768l4 20q3 15 15 27l360 318q73 64 102 111t29 104q0 64 -38 99.5t-109 35.5q-130 0 -201 -109q-15 -22 -31 -6l-18 14q-18 12 -6 31q99 135 264 135q98 0 155.5 -52.5t57.5 -143.5q0 -78 -32.5 -134.5t-123.5 -134.5l-315 -272v-2h365q23 0 20 -25l-4 -20 q-3 -21 -25 -21h-448q-24 0 -21 25z" />
<glyph unicode="&#xb3;" horiz-adv-x="675" d="M160 840q-9 18 6 30l18 15q19 12 31 -6q57 -84 197 -84q102 0 160.5 52t58.5 140q0 137 -187 137h-57q-22 0 -22 25l2 20q3 21 24 21h53q224 0 224 162q0 131 -158 131q-119 0 -201 -88q-15 -18 -33 0l-14 14q-16 17 -2 31q102 108 258 108q103 0 163 -50t60 -136 q0 -168 -157 -203v-2q118 -46 118 -176q0 -118 -77.5 -185t-212.5 -67q-176 0 -252 111z" />
<glyph unicode="&#xb4;" horiz-adv-x="1024" d="M571 1169.5q-4 8.5 4 18.5l211 258q11 14 31 14h43q17 0 20 -9t-8 -21l-221 -256q-10 -13 -26 -13h-37q-13 0 -17 8.5z" />
<glyph unicode="&#xb5;" horiz-adv-x="1026" d="M37 -301l203 1284q3 23 26 23h37q26 0 23 -27l-99 -612q-8 -36 -8 -88q0 -228 242 -228q139 0 216 77.5t103 242.5l97 612q3 23 26 23h35q26 0 23 -27l-101 -633q-58 -371 -397 -371q-215 0 -270 156h-3l-69 -436q-3 -23 -27 -23h-35q-25 0 -22 27z" />
<glyph unicode="&#xb6;" horiz-adv-x="1150" d="M131 956q0 244 129.5 361t398.5 117h441q23 0 20 -25l-270 -1716q-3 -21 -25 -21h-30q-24 0 -21 25l262 1663h-311l-260 -1667q-3 -21 -25 -21h-30q-24 0 -21 25l150 948q-408 0 -408 311z" />
<glyph unicode="&#xb7;" horiz-adv-x="430" d="M164 629q0 35 23.5 57.5t56.5 22.5q29 0 46 -17.5t17 -46.5q0 -35 -22.5 -56.5t-55.5 -21.5q-29 0 -47 17.5t-18 44.5z" />
<glyph unicode="&#xb8;" horiz-adv-x="1024" d="M233 -283l11 21q9 18 30 6q50 -33 111 -33q113 0 113 74q0 59 -107 59h-8q-27 0 -18 27l51 133h63l-43 -115q131 -6 131 -104q0 -137 -182 -137q-89 0 -145 39q-16 9 -7 30z" />
<glyph unicode="&#xb9;" horiz-adv-x="675" d="M336 1319q-12 19 6 31l260 176q8 8 27 8h16q24 0 21 -25l-119 -745q-3 -21 -25 -21h-26q-24 0 -21 25l107 666l-205 -138q-18 -12 -31 7z" />
<glyph unicode="&#xba;" horiz-adv-x="745" d="M127 719q0 29 6 67l35 226q46 291 319 291q125 0 191.5 -59t66.5 -171q0 -29 -6 -67l-34 -226q-46 -291 -322 -291q-124 0 -190 59t-66 171zM207 727q0 -168 180 -168q105 0 163 58.5t77 181.5l30 194q7 47 7 72q0 168 -181 168q-104 0 -161.5 -58.5t-77.5 -183.5 l-31 -194q-6 -37 -6 -70z" />
<glyph unicode="&#xbb;" horiz-adv-x="808" d="M40 130.5q-4 9.5 7 21.5l281 358l-170 346q-16 29 18 29h25q19 0 28 -19l174 -344q9 -15 -4 -35l-278 -352q-11 -14 -31 -14h-29q-17 0 -21 9.5zM384.5 130.5q-4.5 9.5 6.5 21.5l281 358l-170 346q-16 29 18 29h25q19 0 28 -19l175 -344q9 -14 -5 -35l-278 -352 q-11 -14 -31 -14h-28q-17 0 -21.5 9.5z" />
<glyph unicode="&#xbc;" horiz-adv-x="1617" d="M297 1063q-12 19 6 31l260 176q8 8 27 8h16q24 0 21 -25l-119 -745q-3 -21 -25 -21h-26q-24 0 -21 25l107 666l-205 -138q-18 -12 -31 7zM380.5 8q-3.5 8 4.5 19l1006 1239q9 12 26 12h37q13 0 16.5 -8t-4.5 -19l-1007 -1239q-9 -12 -27 -12h-35q-13 0 -16.5 8zM977 213 l4 31q3 17 12 26l467 506q12 15 29 15h31q23 0 20 -25l-82 -512h70q22 0 22 -25l-2 -20q-3 -21 -24 -21h-76l-27 -168q-3 -20 -24 -20h-27q-23 0 -20 25l26 163h-379q-23 0 -20 25zM1067 254h319l68 422h-2z" />
<glyph unicode="&#xbd;" horiz-adv-x="1617" d="M297 1063q-12 19 6 31l260 176q8 8 27 8h16q24 0 21 -25l-119 -745q-3 -21 -25 -21h-26q-24 0 -21 25l107 666l-205 -138q-18 -12 -31 7zM300.5 8q-3.5 8 4.5 19l1006 1239q9 12 26 12h37q13 0 16.5 -8t-4.5 -19l-1007 -1239q-9 -12 -27 -12h-35q-13 0 -16.5 8zM977 25 l4 20q3 16 14 27l361 317q73 64 102 111t29 104q0 64 -38.5 99.5t-109.5 35.5q-129 0 -200 -108q-15 -22 -31 -6l-18 14q-19 13 -7 31q99 135 265 135q98 0 155.5 -53t57.5 -144q0 -78 -32.5 -134t-123.5 -134l-315 -272v-2h364q24 0 21 -25l-5 -21q-3 -20 -24 -20h-449 q-23 0 -20 25z" />
<glyph unicode="&#xbe;" horiz-adv-x="1617" d="M123 584q-9 18 6 30l18 15q19 12 31 -6q57 -84 197 -84q102 0 160.5 52t58.5 140q0 137 -186 137h-58q-22 0 -22 25l2 20q3 21 24 21h54q223 0 223 162q0 131 -158 131q-119 0 -201 -88q-15 -17 -32 0l-15 14q-17 17 -2 31q102 108 258 108q103 0 163.5 -50t60.5 -136 q0 -168 -158 -203v-2q119 -46 119 -176q0 -118 -78 -185t-213 -67q-175 0 -252 111zM397 8q-4 8 4 19l1006 1239q9 12 27 12h36q13 0 17 -8t-4 -19l-1008 -1239q-9 -12 -26 -12h-35q-13 0 -17 8zM975 213l4 31q3 17 12 26l467 506q12 15 29 15h31q23 0 20 -25l-82 -512h70 q22 0 22 -25l-2 -20q-3 -21 -24 -21h-76l-27 -168q-3 -20 -24 -20h-27q-23 0 -20 25l26 163h-379q-23 0 -20 25zM1065 254h319l68 422h-2z" />
<glyph unicode="&#xbf;" horiz-adv-x="913" d="M23 291q0 137 63.5 227t218.5 172q124 66 177.5 127t64.5 148l8 57q3 22 25 22h30q26 0 23 -26l-10 -66q-18 -104 -77.5 -177.5t-191.5 -145.5q-136 -75 -190.5 -151t-54.5 -189q0 -111 71.5 -173.5t198.5 -62.5q228 0 369 205q15 22 34 6l25 -18q18 -15 4 -35 q-166 -236 -438 -236q-159 0 -254.5 86.5t-95.5 229.5zM569 1307q0 32 23 54.5t55 22.5q29 0 47.5 -17.5t18.5 -43.5q0 -35 -23.5 -57.5t-56.5 -22.5q-27 0 -45.5 17.5t-18.5 46.5z" />
<glyph unicode="&#xc0;" horiz-adv-x="1181" d="M4 29l684 1312q10 19 29 19h47q24 0 27 -23l264 -1308q4 -13 -1.5 -21t-19.5 -8h-39q-23 0 -26 23l-58 290h-663l-150 -293q-9 -20 -30 -20h-45q-35 0 -19 29zM289 393h606l-168 852h-2zM597.5 1794q4.5 8 18.5 8h37q20 0 29 -18l127 -254q12 -27 -16 -27h-27 q-17 0 -27 17l-139 254q-7 12 -2.5 20z" />
<glyph unicode="&#xc1;" horiz-adv-x="1181" d="M4 29l684 1312q10 19 29 19h47q24 0 27 -23l264 -1308q4 -13 -1.5 -21t-19.5 -8h-39q-23 0 -26 23l-58 290h-663l-150 -293q-9 -20 -30 -20h-45q-35 0 -19 29zM289 393h606l-168 852h-2zM714.5 1511.5q-3.5 8.5 4.5 18.5l211 258q11 14 31 14h43q17 0 20 -9t-8 -21 l-221 -256q-10 -13 -27 -13h-37q-13 0 -16.5 8.5z" />
<glyph unicode="&#xc2;" horiz-adv-x="1181" d="M4 29l684 1312q10 19 29 19h47q24 0 27 -23l264 -1308q4 -13 -1.5 -21t-19.5 -8h-39q-23 0 -26 23l-58 290h-663l-150 -293q-9 -20 -30 -20h-45q-35 0 -19 29zM289 393h606l-168 852h-2zM536 1511.5q-5 8.5 5 18.5l219 258q11 14 31 14h34q19 0 31 -18l133 -254 q12 -27 -16 -27h-25q-16 0 -26 17l-119 213l-189 -217q-10 -13 -26 -13h-33q-14 0 -19 8.5z" />
<glyph unicode="&#xc3;" horiz-adv-x="1181" d="M4 29l684 1312q10 19 29 19h47q24 0 27 -23l264 -1308q4 -13 -1.5 -21t-19.5 -8h-39q-23 0 -26 23l-58 290h-663l-150 -293q-9 -20 -30 -20h-45q-35 0 -19 29zM289 393h606l-168 852h-2zM500 1561q47 170 178 170q63 0 125 -68q47 -53 86 -53q76 0 110 104q7 17 25 17h27 q22 0 16 -25q-53 -170 -180 -170q-68 0 -127 68q-47 53 -86 53q-72 0 -109 -105q-6 -18 -24 -18h-25q-25 0 -16 27z" />
<glyph unicode="&#xc4;" horiz-adv-x="1181" d="M4 29l684 1312q10 19 29 19h47q24 0 27 -23l264 -1308q4 -13 -1.5 -21t-19.5 -8h-39q-23 0 -26 23l-58 290h-663l-150 -293q-9 -20 -30 -20h-45q-35 0 -19 29zM289 393h606l-168 852h-2zM561 1628q0 31 20 52.5t50 21.5q26 0 42.5 -17.5t16.5 -44.5q0 -30 -21 -50.5 t-51 -20.5q-25 0 -41 17t-16 42zM879 1628q0 31 19.5 52.5t49.5 21.5q26 0 43 -18t17 -44q0 -30 -21 -50.5t-51 -20.5q-25 0 -41 17t-16 42z" />
<glyph unicode="&#xc5;" horiz-adv-x="1181" d="M4 29l684 1312q10 19 29 19h47q24 0 27 -23l264 -1308q4 -13 -1.5 -21t-19.5 -8h-39q-23 0 -26 23l-58 290h-663l-150 -293q-9 -20 -30 -20h-45q-35 0 -19 29zM289 393h606l-168 852h-2zM631 1638q0 72 49 121t121 49q62 0 101.5 -38.5t39.5 -98.5q0 -73 -49.5 -123.5 t-118.5 -50.5q-63 0 -103 39.5t-40 101.5zM696 1638q0 -35 21.5 -55t58.5 -20q42 0 71.5 30t29.5 74q0 35 -22.5 55.5t-59.5 20.5q-41 0 -70 -30.5t-29 -74.5z" />
<glyph unicode="&#xc6;" horiz-adv-x="1812" d="M-40.5 9.5q-5.5 9.5 5.5 21.5l1030 1315q11 14 31 14h807q25 0 22 -27l-4 -30q-3 -23 -26 -23h-713l-88 -553h618q26 0 23 -27l-4 -30q-3 -23 -27 -23h-622l-90 -567h708q26 0 23 -27l-4 -30q-3 -23 -27 -23h-774q-26 0 -23 27l45 288h-575l-234 -301q-11 -14 -30 -14 h-49q-17 0 -22.5 9.5zM356 395h529l133 852h-2z" />
<glyph unicode="&#xc7;" horiz-adv-x="1093" d="M113 348q0 45 10 123l67 426q76 487 527 487q318 0 397 -260q6 -21 -14 -30l-33 -11q-27 -9 -33 17q-64 205 -323 205q-371 0 -439 -435l-59 -385q-10 -62 -10 -127q0 -303 317 -303q249 0 381 217q16 25 35 11l33 -19q18 -12 6 -33q-151 -250 -443 -256l-32 -86 q131 -6 131 -104q0 -137 -182 -137q-90 0 -146 39q-15 9 -6 30l10 21q9 18 31 6q50 -33 111 -33q112 0 112 74q0 59 -106 59h-9q-27 0 -18 27l41 106q-174 11 -265 105.5t-91 265.5z" />
<glyph unicode="&#xc8;" horiz-adv-x="1099" d="M111 27l206 1310q3 23 27 23h774q26 0 23 -27l-4 -30q-3 -23 -27 -23h-713l-88 -553h619q25 0 22 -27l-6 -30q-3 -23 -26 -23h-621l-90 -567h706q26 0 23 -27l-4 -30q-3 -23 -25 -23h-774q-25 0 -22 27zM589.5 1794q4.5 8 18.5 8h37q20 0 29 -18l127 -254q15 -27 -17 -27 h-26q-17 0 -27 17l-139 254q-7 12 -2.5 20z" />
<glyph unicode="&#xc9;" horiz-adv-x="1099" d="M111 27l206 1310q3 23 27 23h774q26 0 23 -27l-4 -30q-3 -23 -27 -23h-713l-88 -553h619q25 0 22 -27l-6 -30q-3 -23 -26 -23h-621l-90 -567h706q26 0 23 -27l-4 -30q-3 -23 -25 -23h-774q-25 0 -22 27zM706.5 1511.5q-3.5 8.5 4.5 18.5l211 258q11 14 30 14h43 q17 0 20.5 -9t-7.5 -21l-222 -256q-10 -13 -26 -13h-37q-13 0 -16.5 8.5z" />
<glyph unicode="&#xca;" horiz-adv-x="1099" d="M111 27l206 1310q3 23 27 23h774q26 0 23 -27l-4 -30q-3 -23 -27 -23h-713l-88 -553h619q25 0 22 -27l-6 -30q-3 -23 -26 -23h-621l-90 -567h706q26 0 23 -27l-4 -30q-3 -23 -25 -23h-774q-25 0 -22 27zM527.5 1511.5q-5.5 8.5 4.5 18.5l220 258q11 14 30 14h35 q19 0 31 -18l133 -254q15 -27 -16 -27h-25q-17 0 -27 17l-118 213l-189 -217q-10 -13 -26 -13h-33q-14 0 -19.5 8.5z" />
<glyph unicode="&#xcb;" horiz-adv-x="1099" d="M111 27l206 1310q3 23 27 23h774q26 0 23 -27l-4 -30q-3 -23 -27 -23h-713l-88 -553h619q25 0 22 -27l-6 -30q-3 -23 -26 -23h-621l-90 -567h706q26 0 23 -27l-4 -30q-3 -23 -25 -23h-774q-25 0 -22 27zM553 1628q0 31 20 52.5t50 21.5q26 0 42.5 -17.5t16.5 -44.5 q0 -30 -21 -50.5t-51 -20.5q-25 0 -41 17t-16 42zM870 1628q0 31 20 52.5t50 21.5q26 0 42.5 -17.5t16.5 -44.5q0 -30 -20.5 -50.5t-50.5 -20.5q-25 0 -41.5 17t-16.5 42z" />
<glyph unicode="&#xcc;" horiz-adv-x="448" d="M111 27l206 1310q3 23 27 23h39q26 0 23 -27l-207 -1310q-3 -23 -27 -23h-39q-25 0 -22 27zM221 1794q5 8 19 8h36q20 0 29 -18l127 -254q15 -27 -16 -27h-27q-17 0 -27 17l-139 254q-7 12 -2 20z" />
<glyph unicode="&#xcd;" horiz-adv-x="448" d="M111 27l206 1310q3 23 27 23h39q26 0 23 -27l-207 -1310q-3 -23 -27 -23h-39q-25 0 -22 27zM337.5 1511.5q-3.5 8.5 4.5 18.5l211 258q11 14 31 14h43q17 0 20 -9t-8 -21l-221 -256q-10 -13 -27 -13h-37q-13 0 -16.5 8.5z" />
<glyph unicode="&#xce;" horiz-adv-x="448" d="M111 27l206 1310q3 23 27 23h39q26 0 23 -27l-207 -1310q-3 -23 -27 -23h-39q-25 0 -22 27zM159 1511.5q-5 8.5 5 18.5l219 258q11 14 31 14h35q18 0 30 -18l133 -254q15 -27 -16 -27h-25q-16 0 -26 17l-119 213l-188 -217q-10 -13 -27 -13h-33q-14 0 -19 8.5z" />
<glyph unicode="&#xcf;" horiz-adv-x="448" d="M111 27l206 1310q3 23 27 23h39q26 0 23 -27l-207 -1310q-3 -23 -27 -23h-39q-25 0 -22 27zM184 1628q0 31 20 52.5t50 21.5q26 0 42.5 -17.5t16.5 -44.5q0 -30 -20.5 -50.5t-50.5 -20.5q-25 0 -41.5 17t-16.5 42zM502 1628q0 31 19.5 52.5t49.5 21.5q26 0 43 -18t17 -44 q0 -30 -20.5 -50.5t-51.5 -20.5q-25 0 -41 17t-16 42z" />
<glyph unicode="&#xd0;" horiz-adv-x="1226" d="M82 674l6 31q3 22 27 22h125l96 610q3 23 26 23h404q410 0 410 -354q0 -30 -11 -113l-69 -432q-74 -461 -537 -461h-407q-26 0 -23 27l98 620h-123q-25 0 -22 27zM225 80h336q387 0 451 407l61 390q10 75 10 112q0 291 -325 291h-342l-88 -553h321q26 0 23 -27l-6 -30 q-3 -23 -27 -23h-324z" />
<glyph unicode="&#xd1;" horiz-adv-x="1277" d="M111 27l206 1310q3 23 27 23h51q19 0 29 -19l532 -1194h2l189 1190q3 23 27 23h36q26 0 23 -27l-207 -1310q-3 -23 -27 -23h-43q-19 0 -28 18l-539 1211h-2l-190 -1206q-3 -23 -27 -23h-37q-25 0 -22 27zM537 1561q47 170 178 170q63 0 125 -68q47 -53 86 -53 q76 0 110 104q7 17 25 17h26q23 0 17 -25q-53 -170 -180 -170q-68 0 -127 68q-47 53 -86 53q-71 0 -109 -105q-6 -18 -24 -18h-25q-25 0 -16 27z" />
<glyph unicode="&#xd2;" horiz-adv-x="1191" d="M113 354q0 42 10 117l67 426q76 487 529 487q203 0 310.5 -97t107.5 -281q0 -34 -11 -117l-67 -426q-73 -488 -527 -488q-203 0 -311 97.5t-108 281.5zM203 367q0 -312 334 -312q191 0 297 106t141 328l61 385q11 86 11 119q0 312 -332 312q-191 0 -298.5 -106.5 t-142.5 -328.5l-61 -385q-10 -78 -10 -118zM589.5 1794q4.5 8 18.5 8h37q20 0 29 -18l127 -254q15 -27 -17 -27h-26q-17 0 -27 17l-139 254q-7 12 -2.5 20z" />
<glyph unicode="&#xd3;" horiz-adv-x="1191" d="M113 354q0 42 10 117l67 426q76 487 529 487q203 0 310.5 -97t107.5 -281q0 -34 -11 -117l-67 -426q-73 -488 -527 -488q-203 0 -311 97.5t-108 281.5zM203 367q0 -312 334 -312q191 0 297 106t141 328l61 385q11 86 11 119q0 312 -332 312q-191 0 -298.5 -106.5 t-142.5 -328.5l-61 -385q-10 -78 -10 -118zM706.5 1511.5q-3.5 8.5 4.5 18.5l211 258q11 14 30 14h43q17 0 20.5 -9t-7.5 -21l-222 -256q-10 -13 -26 -13h-37q-13 0 -16.5 8.5z" />
<glyph unicode="&#xd4;" horiz-adv-x="1191" d="M113 354q0 42 10 117l67 426q76 487 529 487q203 0 310.5 -97t107.5 -281q0 -34 -11 -117l-67 -426q-73 -488 -527 -488q-203 0 -311 97.5t-108 281.5zM203 367q0 -312 334 -312q191 0 297 106t141 328l61 385q11 86 11 119q0 312 -332 312q-191 0 -298.5 -106.5 t-142.5 -328.5l-61 -385q-10 -78 -10 -118zM527.5 1511.5q-5.5 8.5 4.5 18.5l220 258q11 14 30 14h35q19 0 31 -18l133 -254q15 -27 -16 -27h-25q-17 0 -27 17l-118 213l-189 -217q-10 -13 -26 -13h-33q-14 0 -19.5 8.5z" />
<glyph unicode="&#xd5;" horiz-adv-x="1191" d="M113 354q0 42 10 117l67 426q76 487 529 487q203 0 310.5 -97t107.5 -281q0 -34 -11 -117l-67 -426q-73 -488 -527 -488q-203 0 -311 97.5t-108 281.5zM203 367q0 -312 334 -312q191 0 297 106t141 328l61 385q11 86 11 119q0 312 -332 312q-191 0 -298.5 -106.5 t-142.5 -328.5l-61 -385q-10 -78 -10 -118zM492 1561q47 170 178 170q63 0 125 -68q47 -53 86 -53q76 0 110 104q7 17 25 17h26q23 0 17 -25q-53 -170 -180 -170q-68 0 -127 68q-47 53 -86 53q-72 0 -109 -105q-6 -18 -25 -18h-24q-25 0 -16 27z" />
<glyph unicode="&#xd6;" horiz-adv-x="1191" d="M113 354q0 42 10 117l67 426q76 487 529 487q203 0 310.5 -97t107.5 -281q0 -34 -11 -117l-67 -426q-73 -488 -527 -488q-203 0 -311 97.5t-108 281.5zM203 367q0 -312 334 -312q191 0 297 106t141 328l61 385q11 86 11 119q0 312 -332 312q-191 0 -298.5 -106.5 t-142.5 -328.5l-61 -385q-10 -78 -10 -118zM553 1628q0 31 20 52.5t50 21.5q26 0 42.5 -17.5t16.5 -44.5q0 -30 -21 -50.5t-51 -20.5q-25 0 -41 17t-16 42zM870 1628q0 31 20 52.5t50 21.5q26 0 42.5 -17.5t16.5 -44.5q0 -30 -20.5 -50.5t-50.5 -20.5q-25 0 -41.5 17 t-16.5 42z" />
<glyph unicode="&#xd7;" d="M68 156q-14 20 2 34l444 383l-319 381q-15 21 2 35l24 23q21 15 35 -2l322 -381l444 383q21 15 35 -2l18 -23q14 -20 -4 -35l-444 -383l319 -381q14 -20 -2 -34l-22 -21q-19 -19 -35 0l-322 381l-444 -383q-21 -15 -35 2z" />
<glyph unicode="&#xd8;" horiz-adv-x="1191" d="M74 43l94 115q-43 82 -43 196q0 42 10 117l68 426q76 487 528 487q226 0 332 -118l80 98q16 16 31 4l24 -20q15 -15 2 -31l-94 -115q43 -82 43 -196q0 -42 -10 -117l-68 -426q-73 -488 -526 -488q-227 0 -334 119l-80 -98q-16 -16 -31 -4l-24 20q-15 15 -2 31zM215 367 q0 -63 16 -125h2l773 952q-82 111 -279 111q-191 0 -298 -106.5t-142 -328.5l-62 -385q-10 -78 -10 -118zM268 166q82 -111 281 -111q191 0 297 106t141 328l62 385q10 78 10 119q0 59 -17 125h-2z" />
<glyph unicode="&#xd9;" horiz-adv-x="1204" d="M137 340q0 41 10 113l140 884q3 23 26 23h39q26 0 23 -27l-137 -866q-11 -86 -11 -117q0 -295 318 -295q182 0 283 101.5t133 316.5l135 864q3 23 26 23h37q26 0 23 -27l-140 -887q-77 -471 -503 -471q-195 0 -298.5 93.5t-103.5 271.5zM595.5 1794q4.5 8 18.5 8h37 q20 0 29 -18l127 -254q12 -27 -16 -27h-27q-17 0 -27 17l-139 254q-7 12 -2.5 20z" />
<glyph unicode="&#xda;" horiz-adv-x="1204" d="M137 340q0 41 10 113l140 884q3 23 26 23h39q26 0 23 -27l-137 -866q-11 -86 -11 -117q0 -295 318 -295q182 0 283 101.5t133 316.5l135 864q3 23 26 23h37q26 0 23 -27l-140 -887q-77 -471 -503 -471q-195 0 -298.5 93.5t-103.5 271.5zM712.5 1511.5q-3.5 8.5 4.5 18.5 l211 258q11 14 30 14h43q17 0 20.5 -9t-7.5 -21l-221 -256q-10 -13 -27 -13h-37q-13 0 -16.5 8.5z" />
<glyph unicode="&#xdb;" horiz-adv-x="1204" d="M137 340q0 41 10 113l140 884q3 23 26 23h39q26 0 23 -27l-137 -866q-11 -86 -11 -117q0 -295 318 -295q182 0 283 101.5t133 316.5l135 864q3 23 26 23h37q26 0 23 -27l-140 -887q-77 -471 -503 -471q-195 0 -298.5 93.5t-103.5 271.5zM534 1511.5q-5 8.5 5 18.5 l219 258q11 14 30 14h35q19 0 31 -18l133 -254q12 -27 -16 -27h-25q-16 0 -26 17l-119 213l-189 -217q-10 -13 -26 -13h-33q-14 0 -19 8.5z" />
<glyph unicode="&#xdc;" horiz-adv-x="1204" d="M137 340q0 41 10 113l140 884q3 23 26 23h39q26 0 23 -27l-137 -866q-11 -86 -11 -117q0 -295 318 -295q182 0 283 101.5t133 316.5l135 864q3 23 26 23h37q26 0 23 -27l-140 -887q-77 -471 -503 -471q-195 0 -298.5 93.5t-103.5 271.5zM559 1628q0 31 20 52.5t50 21.5 q26 0 42.5 -17.5t16.5 -44.5q0 -30 -21 -50.5t-51 -20.5q-25 0 -41 17t-16 42zM877 1628q0 31 19.5 52.5t49.5 21.5q26 0 43 -18t17 -44q0 -30 -21 -50.5t-51 -20.5q-25 0 -41 17t-16 42z" />
<glyph unicode="&#xdd;" horiz-adv-x="1046" d="M178 1331q-16 29 19 29h45q18 0 28 -19l295 -641l500 646q11 14 31 14h51q17 0 21 -9.5t-7 -21.5l-565 -721l-92 -585q-3 -23 -27 -23h-39q-25 0 -22 27l94 591zM647 1511.5q-4 8.5 4 18.5l211 258q11 14 31 14h43q17 0 20 -9t-8 -21l-221 -256q-10 -13 -27 -13h-36 q-13 0 -17 8.5z" />
<glyph unicode="&#xde;" horiz-adv-x="1101" d="M111 27l206 1310q3 23 27 23h39q26 0 23 -27l-37 -237h309q407 0 407 -332q0 -232 -130 -345.5t-398 -113.5h-313l-45 -282q-3 -23 -27 -23h-39q-25 0 -22 27zM256 385h309q220 0 325 91t105 282q0 133 -79.5 195.5t-245.5 62.5h-316z" />
<glyph unicode="&#xdf;" horiz-adv-x="1124" d="M88 27l174 1089q26 164 138 253t292 89q158 0 245 -70.5t87 -195.5q0 -101 -47.5 -168.5t-163.5 -128.5q-93 -49 -129.5 -93.5t-36.5 -107.5q0 -56 34.5 -87t125.5 -56q118 -32 168.5 -88.5t50.5 -155.5q0 -155 -101 -243.5t-278 -88.5q-223 0 -325 123q-15 18 2 35 l20 21q20 20 35 -2q82 -101 270 -101q137 0 216 66.5t79 181.5q0 73 -41.5 115t-144.5 71q-108 31 -151.5 77t-43.5 128q0 91 44.5 150t154.5 116q102 53 142 105.5t40 126.5q0 92 -67.5 143t-190.5 51q-146 0 -234 -72t-108 -208l-172 -1079q-3 -23 -27 -23h-34 q-26 0 -23 27z" />
<glyph unicode="&#xe0;" horiz-adv-x="923" d="M53 236q0 160 104 247.5t298 87.5h280l8 58q9 47 9 94q0 231 -248 231q-135 0 -250 -106q-20 -20 -35 2l-20 27q-16 20 4 34q131 119 311 119q159 0 242.5 -75.5t83.5 -221.5q0 -47 -9 -90l-47 -289q-59 -379 -417 -379q-149 0 -231.5 69t-82.5 192zM137 238 q0 -187 236 -187q147 0 225 78t107 250l18 117h-264q-154 0 -238 -67t-84 -191zM411.5 1452q4.5 8 18.5 8h37q20 0 29 -18l127 -254q12 -27 -17 -27h-26q-17 0 -27 17l-139 254q-7 12 -2.5 20z" />
<glyph unicode="&#xe1;" horiz-adv-x="923" d="M53 236q0 160 104 247.5t298 87.5h280l8 58q9 47 9 94q0 231 -248 231q-135 0 -250 -106q-20 -20 -35 2l-20 27q-16 20 4 34q131 119 311 119q159 0 242.5 -75.5t83.5 -221.5q0 -47 -9 -90l-47 -289q-59 -379 -417 -379q-149 0 -231.5 69t-82.5 192zM137 238 q0 -187 236 -187q147 0 225 78t107 250l18 117h-264q-154 0 -238 -67t-84 -191zM528 1169.5q-4 8.5 4 18.5l211 258q11 14 31 14h43q17 0 20 -9t-8 -21l-221 -256q-10 -13 -26 -13h-37q-13 0 -17 8.5z" />
<glyph unicode="&#xe2;" horiz-adv-x="923" d="M53 236q0 160 104 247.5t298 87.5h280l8 58q9 47 9 94q0 231 -248 231q-135 0 -250 -106q-20 -20 -35 2l-20 27q-16 20 4 34q131 119 311 119q159 0 242.5 -75.5t83.5 -221.5q0 -47 -9 -90l-47 -289q-59 -379 -417 -379q-149 0 -231.5 69t-82.5 192zM137 238 q0 -187 236 -187q147 0 225 78t107 250l18 117h-264q-154 0 -238 -67t-84 -191zM349.5 1169.5q-5.5 8.5 4.5 18.5l219 258q11 14 31 14h35q19 0 31 -18l133 -254q12 -27 -17 -27h-24q-17 0 -27 17l-119 213l-188 -217q-10 -13 -27 -13h-32q-14 0 -19.5 8.5z" />
<glyph unicode="&#xe3;" horiz-adv-x="923" d="M53 236q0 160 104 247.5t298 87.5h280l8 58q9 47 9 94q0 231 -248 231q-135 0 -250 -106q-20 -20 -35 2l-20 27q-16 20 4 34q131 119 311 119q159 0 242.5 -75.5t83.5 -221.5q0 -47 -9 -90l-47 -289q-59 -379 -417 -379q-149 0 -231.5 69t-82.5 192zM137 238 q0 -187 236 -187q147 0 225 78t107 250l18 117h-264q-154 0 -238 -67t-84 -191zM313 1219q47 170 179 170q62 0 124 -68q47 -53 86 -53q77 0 111 104q7 17 25 17h26q23 0 17 -25q-53 -170 -181 -170q-68 0 -127 68q-47 53 -86 53q-71 0 -108 -105q-6 -18 -25 -18h-24 q-26 0 -17 27z" />
<glyph unicode="&#xe4;" horiz-adv-x="923" d="M53 236q0 160 104 247.5t298 87.5h280l8 58q9 47 9 94q0 231 -248 231q-135 0 -250 -106q-20 -20 -35 2l-20 27q-16 20 4 34q131 119 311 119q159 0 242.5 -75.5t83.5 -221.5q0 -47 -9 -90l-47 -289q-59 -379 -417 -379q-149 0 -231.5 69t-82.5 192zM137 238 q0 -187 236 -187q147 0 225 78t107 250l18 117h-264q-154 0 -238 -67t-84 -191zM375 1286q0 31 19.5 52.5t49.5 21.5q26 0 43 -18t17 -44q0 -30 -21 -50.5t-51 -20.5q-25 0 -41 17t-16 42zM692 1286q0 31 20 52.5t50 21.5q26 0 42.5 -17.5t16.5 -44.5q0 -30 -20.5 -50.5 t-50.5 -20.5q-25 0 -41.5 17t-16.5 42z" />
<glyph unicode="&#xe5;" horiz-adv-x="923" d="M53 236q0 160 104 247.5t298 87.5h280l8 58q9 47 9 94q0 231 -248 231q-135 0 -250 -106q-20 -20 -35 2l-20 27q-16 20 4 34q131 119 311 119q159 0 242.5 -75.5t83.5 -221.5q0 -47 -9 -90l-47 -289q-59 -379 -417 -379q-149 0 -231.5 69t-82.5 192zM137 238 q0 -187 236 -187q147 0 225 78t107 250l18 117h-264q-154 0 -238 -67t-84 -191zM444 1296q0 72 49 121t121 49q62 0 102 -38.5t40 -98.5q0 -73 -49.5 -123.5t-118.5 -50.5q-63 0 -103.5 39.5t-40.5 101.5zM510 1296q0 -35 21.5 -55t58.5 -20q42 0 71 30t29 74 q0 35 -22.5 55.5t-59.5 20.5q-41 0 -69.5 -30.5t-28.5 -74.5z" />
<glyph unicode="&#xe6;" horiz-adv-x="1531" d="M53 236q0 159 102.5 243t297.5 84h282l10 66q9 49 9 100q0 117 -58.5 171t-181.5 54q-147 0 -260 -104q-20 -20 -35 2l-20 25q-15 17 2 34q137 119 319 119q257 0 295 -209h2q95 209 352 209q149 0 227.5 -73.5t78.5 -213.5q0 -49 -9 -96l-22 -137q-3 -23 -27 -23h-610 l-19 -110q-8 -39 -8 -90q0 -236 271 -236q138 0 249 117q16 19 35 0l21 -23q15 -15 0 -34q-127 -136 -314 -136q-277 0 -323 211h-2q-91 -211 -357 -211q-146 0 -226.5 69t-80.5 192zM137 238q0 -187 236 -187q145 0 224 78.5t108 249.5l18 108h-266q-154 0 -237 -64 t-83 -185zM819 563h551l12 70q11 79 11 104q0 217 -234 217q-143 0 -223.5 -79t-106.5 -246z" />
<glyph unicode="&#xe7;" horiz-adv-x="843" d="M88 272q0 52 8 93l43 286q56 379 412 379q185 0 278 -106q15 -18 -2 -35l-22 -21q-22 -16 -37 2q-78 84 -219 84q-143 0 -222.5 -79.5t-105.5 -249.5l-39 -248q-8 -41 -8 -94q0 -232 254 -232q131 0 242 105q20 20 35 -2l16 -21q15 -18 -2 -35q-126 -120 -295 -123 l-33 -86q131 -6 131 -104q0 -137 -182 -137q-89 0 -145 39q-16 9 -7 30l11 21q9 18 30 6q50 -33 111 -33q113 0 113 74q0 59 -107 59h-8q-28 0 -19 27l41 106q-131 14 -201.5 89.5t-70.5 205.5z" />
<glyph unicode="&#xe8;" horiz-adv-x="925" d="M88 270q0 53 8 92l43 291q55 377 408 377q155 0 238 -75.5t83 -217.5q0 -49 -8 -90l-24 -149q-3 -23 -27 -23h-612l-15 -98q-8 -39 -8 -92q0 -234 270 -234q137 0 248 117q18 21 37 2l21 -23q15 -15 0 -34q-135 -138 -316 -138q-168 0 -257 75t-89 220zM209 551h553 l14 82q8 41 8 96q0 227 -241 227q-141 0 -218.5 -78.5t-103.5 -248.5zM419.5 1452q4.5 8 18.5 8h37q20 0 29 -18l127 -254q12 -27 -17 -27h-26q-17 0 -27 17l-139 254q-7 12 -2.5 20z" />
<glyph unicode="&#xe9;" horiz-adv-x="925" d="M88 270q0 53 8 92l43 291q55 377 408 377q155 0 238 -75.5t83 -217.5q0 -49 -8 -90l-24 -149q-3 -23 -27 -23h-612l-15 -98q-8 -39 -8 -92q0 -234 270 -234q137 0 248 117q18 21 37 2l21 -23q15 -15 0 -34q-135 -138 -316 -138q-168 0 -257 75t-89 220zM209 551h553 l14 82q8 41 8 96q0 227 -241 227q-141 0 -218.5 -78.5t-103.5 -248.5zM536.5 1169.5q-3.5 8.5 4.5 18.5l211 258q11 14 30 14h43q17 0 20.5 -9t-7.5 -21l-222 -256q-10 -13 -26 -13h-37q-13 0 -16.5 8.5z" />
<glyph unicode="&#xea;" horiz-adv-x="925" d="M88 270q0 53 8 92l43 291q55 377 408 377q155 0 238 -75.5t83 -217.5q0 -49 -8 -90l-24 -149q-3 -23 -27 -23h-612l-15 -98q-8 -39 -8 -92q0 -234 270 -234q137 0 248 117q18 21 37 2l21 -23q15 -15 0 -34q-135 -138 -316 -138q-168 0 -257 75t-89 220zM209 551h553 l14 82q8 41 8 96q0 227 -241 227q-141 0 -218.5 -78.5t-103.5 -248.5zM357.5 1169.5q-5.5 8.5 4.5 18.5l220 258q11 14 30 14h35q19 0 31 -18l133 -254q12 -27 -16 -27h-25q-17 0 -27 17l-118 213l-189 -217q-10 -13 -26 -13h-33q-14 0 -19.5 8.5z" />
<glyph unicode="&#xeb;" horiz-adv-x="925" d="M88 270q0 53 8 92l43 291q55 377 408 377q155 0 238 -75.5t83 -217.5q0 -49 -8 -90l-24 -149q-3 -23 -27 -23h-612l-15 -98q-8 -39 -8 -92q0 -234 270 -234q137 0 248 117q18 21 37 2l21 -23q15 -15 0 -34q-135 -138 -316 -138q-168 0 -257 75t-89 220zM209 551h553 l14 82q8 41 8 96q0 227 -241 227q-141 0 -218.5 -78.5t-103.5 -248.5zM383 1286q0 31 20 52.5t50 21.5q26 0 42.5 -17.5t16.5 -44.5q0 -30 -21 -50.5t-51 -20.5q-25 0 -41 17t-16 42zM700 1286q0 31 20 52.5t50 21.5q26 0 42.5 -17.5t16.5 -44.5q0 -30 -20.5 -50.5 t-50.5 -20.5q-25 0 -41.5 17t-16.5 42z" />
<glyph unicode="&#xec;" horiz-adv-x="401" d="M88 27l152 956q3 23 26 23h35q26 0 23 -27l-152 -956q-3 -23 -27 -23h-34q-26 0 -23 27zM145 1452q5 8 19 8h37q19 0 28 -18l127 -254q12 -27 -16 -27h-27q-16 0 -26 17l-140 254q-7 12 -2 20z" />
<glyph unicode="&#xed;" horiz-adv-x="401" d="M88 27l152 956q3 23 26 23h35q26 0 23 -27l-152 -956q-3 -23 -27 -23h-34q-26 0 -23 27zM262 1169.5q-4 8.5 4 18.5l211 258q11 14 31 14h43q17 0 20 -9t-8 -21l-221 -256q-10 -13 -27 -13h-36q-13 0 -17 8.5z" />
<glyph unicode="&#xee;" horiz-adv-x="401" d="M83 1169.5q-5 8.5 5 18.5l219 258q11 14 31 14h35q18 0 30 -18l134 -254q12 -27 -17 -27h-24q-17 0 -27 17l-119 213l-188 -217q-10 -13 -27 -13h-33q-14 0 -19 8.5zM88 27l152 956q3 23 26 23h35q26 0 23 -27l-152 -956q-3 -23 -27 -23h-34q-26 0 -23 27z" />
<glyph unicode="&#xef;" horiz-adv-x="401" d="M88 27l152 956q3 23 26 23h35q26 0 23 -27l-152 -956q-3 -23 -27 -23h-34q-26 0 -23 27zM109 1286q0 31 19.5 52.5t49.5 21.5q26 0 43 -18t17 -44q0 -30 -21 -50.5t-51 -20.5q-25 0 -41 17t-16 42zM426 1286q0 31 20 52.5t50 21.5q26 0 42.5 -17.5t16.5 -44.5 q0 -30 -20.5 -50.5t-51.5 -20.5q-25 0 -41 17t-16 42z" />
<glyph unicode="&#xf0;" horiz-adv-x="985" d="M86 272q0 33 8 88l45 287q62 379 408 379q203 0 268 -145h2v37q0 236 -108 344l-148 -109q-18 -15 -31 4l-14 23q-12 18 6 30l129 97q-96 62 -268 77q-27 3 -21 29l7 25q6 21 26 18q202 -18 324 -100l117 86q18 15 30 -4l15 -23q12 -18 -7 -31l-100 -75 q125 -125 125 -391q0 -123 -20 -246l-54 -318q-62 -379 -411 -379q-158 0 -243 77t-85 220zM174 279q0 -228 246 -228q145 0 221.5 78t106.5 250l40 248q7 54 7 86q0 237 -246 237q-284 0 -330 -327l-37 -248q-8 -41 -8 -96z" />
<glyph unicode="&#xf1;" horiz-adv-x="1015" d="M76 27l102 635q58 368 404 368q156 0 239.5 -74t83.5 -213q0 -49 -8 -88l-100 -632q-3 -23 -27 -23h-35q-25 0 -22 27l98 616q8 39 8 90q0 221 -241 221q-139 0 -216.5 -77t-103.5 -242l-98 -612q-3 -23 -27 -23h-35q-25 0 -22 27zM352 1219q47 170 178 170q63 0 125 -68 q47 -53 86 -53q77 0 111 104q7 17 25 17h26q23 0 17 -25q-53 -170 -181 -170q-68 0 -127 68q-47 53 -86 53q-70 0 -108 -105q-6 -18 -25 -18h-24q-26 0 -17 27z" />
<glyph unicode="&#xf2;" horiz-adv-x="966" d="M86 272q0 33 8 88l45 293q58 377 414 377q159 0 243.5 -75.5t84.5 -217.5q0 -29 -9 -90l-47 -295q-58 -377 -411 -377q-159 0 -243.5 75.5t-84.5 221.5zM174 279q0 -228 246 -228q145 0 222 78.5t103 249.5l41 254q9 46 9 94q0 227 -246 227q-145 0 -223.5 -78.5 t-104.5 -246.5l-39 -254q-8 -41 -8 -96zM421.5 1452q4.5 8 18.5 8h37q20 0 29 -18l127 -254q15 -27 -17 -27h-26q-17 0 -27 17l-139 254q-7 12 -2.5 20z" />
<glyph unicode="&#xf3;" horiz-adv-x="966" d="M86 272q0 33 8 88l45 293q58 377 414 377q159 0 243.5 -75.5t84.5 -217.5q0 -29 -9 -90l-47 -295q-58 -377 -411 -377q-159 0 -243.5 75.5t-84.5 221.5zM174 279q0 -228 246 -228q145 0 222 78.5t103 249.5l41 254q9 46 9 94q0 227 -246 227q-145 0 -223.5 -78.5 t-104.5 -246.5l-39 -254q-8 -41 -8 -96zM538.5 1169.5q-3.5 8.5 4.5 18.5l211 258q11 14 30 14h43q17 0 20.5 -9t-7.5 -21l-222 -256q-10 -13 -26 -13h-37q-13 0 -16.5 8.5z" />
<glyph unicode="&#xf4;" horiz-adv-x="966" d="M86 272q0 33 8 88l45 293q58 377 414 377q159 0 243.5 -75.5t84.5 -217.5q0 -29 -9 -90l-47 -295q-58 -377 -411 -377q-159 0 -243.5 75.5t-84.5 221.5zM174 279q0 -228 246 -228q145 0 222 78.5t103 249.5l41 254q9 46 9 94q0 227 -246 227q-145 0 -223.5 -78.5 t-104.5 -246.5l-39 -254q-8 -41 -8 -96zM360 1169.5q-5 8.5 5 18.5l219 258q11 14 30 14h35q19 0 31 -18l133 -254q15 -27 -16 -27h-25q-17 0 -27 17l-118 213l-189 -217q-10 -13 -26 -13h-33q-14 0 -19 8.5z" />
<glyph unicode="&#xf5;" horiz-adv-x="966" d="M86 272q0 33 8 88l45 293q58 377 414 377q159 0 243.5 -75.5t84.5 -217.5q0 -29 -9 -90l-47 -295q-58 -377 -411 -377q-159 0 -243.5 75.5t-84.5 221.5zM174 279q0 -228 246 -228q145 0 222 78.5t103 249.5l41 254q9 46 9 94q0 227 -246 227q-145 0 -223.5 -78.5 t-104.5 -246.5l-39 -254q-8 -41 -8 -96zM324 1219q47 170 178 170q63 0 125 -68q47 -53 86 -53q76 0 110 104q7 17 25 17h26q23 0 17 -25q-53 -170 -180 -170q-68 0 -127 68q-47 53 -86 53q-72 0 -109 -105q-6 -18 -24 -18h-25q-25 0 -16 27z" />
<glyph unicode="&#xf6;" horiz-adv-x="966" d="M86 272q0 33 8 88l45 293q58 377 414 377q159 0 243.5 -75.5t84.5 -217.5q0 -29 -9 -90l-47 -295q-58 -377 -411 -377q-159 0 -243.5 75.5t-84.5 221.5zM174 279q0 -228 246 -228q145 0 222 78.5t103 249.5l41 254q9 46 9 94q0 227 -246 227q-145 0 -223.5 -78.5 t-104.5 -246.5l-39 -254q-8 -41 -8 -96zM385 1286q0 31 20 52.5t50 21.5q26 0 42.5 -17.5t16.5 -44.5q0 -30 -21 -50.5t-51 -20.5q-25 0 -41 17t-16 42zM702 1286q0 31 20 52.5t50 21.5q26 0 42.5 -17.5t16.5 -44.5q0 -30 -20.5 -50.5t-50.5 -20.5q-25 0 -41.5 17t-16.5 42z " />
<glyph unicode="&#xf7;" d="M57 559l4 29q3 22 27 22h946q26 0 23 -26l-4 -29q-3 -23 -27 -23h-946q-26 0 -23 27zM426 160q0 31 22 52t54 21q26 0 43.5 -16.5t17.5 -42.5q0 -32 -22 -55t-54 -23q-26 0 -43.5 18.5t-17.5 45.5zM553 973q0 31 22 52.5t54 21.5q26 0 43.5 -17t17.5 -43q0 -32 -22 -55 t-54 -23q-26 0 -43.5 18.5t-17.5 45.5z" />
<glyph unicode="&#xf8;" horiz-adv-x="966" d="M63 41l68 80q-33 62 -33 151q0 33 8 88l46 293q58 377 413 377q168 0 252 -84l55 66q16 16 31 4l23 -19q14 -14 2 -30l-68 -80q33 -56 33 -150q0 -35 -8 -90l-47 -295q-58 -377 -412 -377q-168 0 -252 84l-55 -65q-15 -15 -31 -2l-22 18q-15 15 -3 31zM186 279 q0 -43 9 -78h2l565 680q-58 73 -201 73q-145 0 -223.5 -78.5t-104.5 -246.5l-38 -254q-9 -47 -9 -96zM229 127q58 -76 203 -76t222.5 78.5t103.5 249.5l41 254q16 101 0 176h-2z" />
<glyph unicode="&#xf9;" horiz-adv-x="1003" d="M117 262q0 38 6 84l102 637q3 23 27 23h35q25 0 22 -27l-98 -621q-8 -39 -8 -90q0 -217 235 -217q136 0 211 74.5t101 236.5l100 621q3 23 27 23h32q26 0 23 -27l-103 -639q-58 -365 -397 -365q-154 0 -234.5 73t-80.5 214zM440 1452q5 8 19 8h37q19 0 28 -18l127 -254 q12 -27 -16 -27h-27q-16 0 -26 17l-140 254q-7 12 -2 20z" />
<glyph unicode="&#xfa;" horiz-adv-x="1003" d="M117 262q0 38 6 84l102 637q3 23 27 23h35q25 0 22 -27l-98 -621q-8 -39 -8 -90q0 -217 235 -217q136 0 211 74.5t101 236.5l100 621q3 23 27 23h32q26 0 23 -27l-103 -639q-58 -365 -397 -365q-154 0 -234.5 73t-80.5 214zM556.5 1169.5q-3.5 8.5 4.5 18.5l211 258 q11 14 31 14h43q17 0 20 -9t-8 -21l-221 -256q-10 -13 -27 -13h-37q-13 0 -16.5 8.5z" />
<glyph unicode="&#xfb;" horiz-adv-x="1003" d="M117 262q0 38 6 84l102 637q3 23 27 23h35q25 0 22 -27l-98 -621q-8 -39 -8 -90q0 -217 235 -217q136 0 211 74.5t101 236.5l100 621q3 23 27 23h32q26 0 23 -27l-103 -639q-58 -365 -397 -365q-154 0 -234.5 73t-80.5 214zM378 1169.5q-5 8.5 5 18.5l219 258 q11 14 31 14h35q18 0 30 -18l133 -254q12 -27 -16 -27h-24q-17 0 -27 17l-119 213l-188 -217q-10 -13 -27 -13h-33q-14 0 -19 8.5z" />
<glyph unicode="&#xfc;" horiz-adv-x="1003" d="M117 262q0 38 6 84l102 637q3 23 27 23h35q25 0 22 -27l-98 -621q-8 -39 -8 -90q0 -217 235 -217q136 0 211 74.5t101 236.5l100 621q3 23 27 23h32q26 0 23 -27l-103 -639q-58 -365 -397 -365q-154 0 -234.5 73t-80.5 214zM403 1286q0 31 20 52.5t50 21.5 q26 0 42.5 -17.5t16.5 -44.5q0 -30 -20.5 -50.5t-50.5 -20.5q-25 0 -41.5 17t-16.5 42zM721 1286q0 31 20 52.5t50 21.5q26 0 42.5 -17.5t16.5 -44.5q0 -30 -21 -50.5t-51 -20.5q-25 0 -41 17t-16 42z" />
<glyph unicode="&#xfd;" horiz-adv-x="1026" d="M78 -229q-15 17 2 34l20 23q20 20 35 -2q95 -102 266 -102q274 0 320 292l20 125h-2q-92 -139 -293 -139q-152 0 -231.5 72.5t-79.5 212.5q0 53 8 92l97 604q3 23 26 23h35q26 0 23 -27l-95 -586q-8 -39 -8 -90q0 -225 242 -225q270 0 319 319l92 586q3 23 27 23h35 q25 0 22 -27l-157 -987q-26 -162 -131.5 -253t-270.5 -91q-207 0 -321 123zM577.5 1169.5q-3.5 8.5 4.5 18.5l211 258q11 14 30 14h43q17 0 20.5 -9t-7.5 -21l-222 -256q-10 -13 -26 -13h-37q-13 0 -16.5 8.5z" />
<glyph unicode="&#xfe;" horiz-adv-x="1009" d="M39 -301l268 1712q3 23 27 23h35q25 0 22 -27l-84 -524h2q95 147 301 147q154 0 236 -75.5t82 -217.5q0 -51 -8 -92l-48 -291q-59 -379 -405 -379q-216 0 -272 158h-2l-70 -438q-3 -23 -27 -23h-35q-25 0 -22 27zM221 283q0 -232 246 -232q145 0 222.5 78.5t103.5 249.5 l41 252q8 41 8 94q0 229 -246 229q-276 0 -328 -327l-39 -252q-8 -39 -8 -92z" />
<glyph unicode="&#xff;" horiz-adv-x="1026" d="M78 -229q-15 17 2 34l20 23q20 20 35 -2q95 -102 266 -102q274 0 320 292l20 125h-2q-92 -139 -293 -139q-152 0 -231.5 72.5t-79.5 212.5q0 53 8 92l97 604q3 23 26 23h35q26 0 23 -27l-95 -586q-8 -39 -8 -90q0 -225 242 -225q270 0 319 319l92 586q3 23 27 23h35 q25 0 22 -27l-157 -987q-26 -162 -131.5 -253t-270.5 -91q-207 0 -321 123zM424 1286q0 31 20 52.5t50 21.5q26 0 42.5 -17.5t16.5 -44.5q0 -30 -20.5 -50.5t-51.5 -20.5q-25 0 -41 17t-16 42zM741 1286q0 31 20 52.5t50 21.5q26 0 42.5 -17.5t16.5 -44.5q0 -30 -20.5 -50.5 t-50.5 -20.5q-25 0 -41.5 17t-16.5 42z" />
<glyph unicode="&#x152;" horiz-adv-x="1857" d="M113 354q0 38 10 113l70 434q71 459 536 459h1143q25 0 22 -27l-4 -30q-3 -23 -26 -23h-713l-88 -553h618q26 0 23 -27l-6 -30q-3 -23 -27 -23h-620l-90 -567h706q26 0 23 -27l-4 -30q-3 -23 -25 -23h-1139q-201 0 -305 90.5t-104 263.5zM203 371q0 -291 327 -291h342 l191 1202h-338q-386 0 -451 -410l-61 -389q-10 -75 -10 -112z" />
<glyph unicode="&#x153;" horiz-adv-x="1574" d="M86 270q0 35 8 90l45 293q58 377 410 377q261 0 305 -209h2q92 209 346 209q152 0 234 -76t82 -217q0 -43 -9 -90l-24 -149q-3 -23 -27 -23h-612l-15 -98q-8 -41 -8 -94q0 -121 65.5 -176.5t203.5 -55.5q140 0 247 119q19 18 37 0l21 -23q15 -19 0 -34 q-129 -138 -312 -138q-279 0 -323 213h-2q-89 -213 -350 -213q-156 0 -240 76.5t-84 218.5zM174 279q0 -228 246 -228q146 0 224 78.5t104 249.5l40 254q9 46 9 94q0 227 -248 227q-145 0 -223.5 -78.5t-104.5 -246.5l-39 -254q-8 -41 -8 -96zM856 551h555l14 82q9 47 9 96 q0 225 -242 225q-142 0 -220.5 -79t-103.5 -246z" />
<glyph unicode="&#x178;" horiz-adv-x="1046" d="M178 1331q-16 29 19 29h45q18 0 28 -19l295 -641l500 646q11 14 31 14h51q17 0 21 -9.5t-7 -21.5l-565 -721l-92 -585q-3 -23 -27 -23h-39q-25 0 -22 27l94 591zM494 1628q0 31 19.5 52.5t49.5 21.5q26 0 43 -18t17 -44q0 -30 -20.5 -50.5t-51.5 -20.5q-25 0 -41 17 t-16 42zM811 1628q0 31 20 52.5t50 21.5q26 0 42.5 -17.5t16.5 -44.5q0 -30 -21 -50.5t-51 -20.5q-25 0 -41 17t-16 42z" />
<glyph unicode="&#x2c6;" horiz-adv-x="1024" d="M396.5 1169.5q-5.5 8.5 4.5 18.5l220 258q11 14 30 14h35q19 0 31 -18l133 -254q15 -27 -16 -27h-25q-17 0 -27 17l-118 213l-189 -217q-10 -13 -26 -13h-33q-14 0 -19.5 8.5z" />
<glyph unicode="&#x2dc;" horiz-adv-x="1024" d="M362 1219q47 170 179 170q63 0 125 -68q47 -53 86 -53q76 0 110 104q7 17 25 17h26q23 0 17 -25q-53 -170 -180 -170q-68 0 -127 68q-47 53 -86 53q-71 0 -109 -105q-6 -18 -25 -18h-24q-26 0 -17 27z" />
<glyph unicode="&#x2000;" horiz-adv-x="904" />
<glyph unicode="&#x2001;" horiz-adv-x="1808" />
<glyph unicode="&#x2002;" horiz-adv-x="904" />
<glyph unicode="&#x2003;" horiz-adv-x="1808" />
<glyph unicode="&#x2004;" horiz-adv-x="602" />
<glyph unicode="&#x2005;" horiz-adv-x="452" />
<glyph unicode="&#x2006;" horiz-adv-x="301" />
<glyph unicode="&#x2007;" horiz-adv-x="301" />
<glyph unicode="&#x2008;" horiz-adv-x="226" />
<glyph unicode="&#x2009;" horiz-adv-x="361" />
<glyph unicode="&#x200a;" horiz-adv-x="100" />
<glyph unicode="&#x2010;" horiz-adv-x="669" d="M72 541l6 32q3 23 26 23h498q26 0 23 -27l-7 -32q-3 -23 -26 -23h-498q-25 0 -22 27z" />
<glyph unicode="&#x2011;" horiz-adv-x="669" d="M72 541l6 32q3 23 26 23h498q26 0 23 -27l-7 -32q-3 -23 -26 -23h-498q-25 0 -22 27z" />
<glyph unicode="&#x2012;" horiz-adv-x="669" d="M72 541l6 32q3 23 26 23h498q26 0 23 -27l-7 -32q-3 -23 -26 -23h-498q-25 0 -22 27z" />
<glyph unicode="&#x2013;" horiz-adv-x="1024" d="M74 547l2 20q3 23 26 23h850q26 0 23 -27l-2 -20q-3 -23 -27 -23h-850q-25 0 -22 27z" />
<glyph unicode="&#x2014;" horiz-adv-x="1843" d="M74 547l2 20q3 23 26 23h1672q25 0 22 -27l-2 -20q-3 -23 -27 -23h-1671q-25 0 -22 27z" />
<glyph unicode="&#x2018;" horiz-adv-x="430" d="M248 1147q0 60 37.5 123t103.5 110q15 9 23 -2l10 -14q10 -10 -6 -23q-64 -52 -86 -131q57 -3 57 -59q0 -34 -21.5 -53t-54.5 -19q-29 0 -46 18.5t-17 49.5z" />
<glyph unicode="&#x2019;" horiz-adv-x="430" d="M250 1100q-10 14 4 22q67 52 88 131q-57 3 -57 60q0 34 21 52.5t54 18.5q29 0 46.5 -18t17.5 -49q0 -61 -38 -124t-103 -110q-15 -12 -25 4z" />
<glyph unicode="&#x201a;" horiz-adv-x="430" d="M49 -168q-11 14 4 23q67 52 88 131q-57 3 -57 59q0 34 21.5 53t54.5 19q29 0 46 -18.5t17 -49.5q0 -60 -37.5 -123t-103.5 -110q-15 -12 -25 4z" />
<glyph unicode="&#x201c;" horiz-adv-x="745" d="M248 1147q0 60 37.5 123t103.5 110q15 9 23 -2l10 -14q10 -10 -6 -23q-64 -52 -86 -131q57 -3 57 -59q0 -34 -21.5 -53t-54.5 -19q-29 0 -46 18.5t-17 49.5zM565 1147q0 60 38 123t104 110q14 8 22 -2l10 -14q10 -10 -6 -23q-64 -52 -86 -131q58 -3 58 -59 q0 -34 -21.5 -53t-54.5 -19q-29 0 -46.5 18.5t-17.5 49.5z" />
<glyph unicode="&#x201d;" horiz-adv-x="745" d="M250 1100q-10 14 4 22q67 52 88 131q-57 3 -57 60q0 34 21 52.5t54 18.5q29 0 46.5 -18t17.5 -49q0 -61 -38 -124t-103 -110q-15 -12 -25 4zM567 1100q-10 14 4 22q67 52 88 131q-57 3 -57 60q0 34 21 52.5t55 18.5q29 0 46 -18t17 -49q0 -61 -38 -124t-103 -110 q-15 -12 -25 4z" />
<glyph unicode="&#x201e;" horiz-adv-x="745" d="M49 -168q-11 14 4 23q67 52 88 131q-57 3 -57 59q0 34 21.5 53t54.5 19q29 0 46 -18.5t17 -49.5q0 -60 -37.5 -123t-103.5 -110q-15 -12 -25 4zM367 -168q-11 14 4 23q67 52 88 131q-58 3 -58 59q0 34 21.5 53t54.5 19q29 0 46.5 -18.5t17.5 -49.5q0 -60 -38 -123 t-104 -110q-15 -12 -24 4z" />
<glyph unicode="&#x2022;" horiz-adv-x="1024" d="M299 573q0 103 74 177q73 73 174 73q90 0 149.5 -59.5t59.5 -147.5q0 -102 -74 -176q-74 -71 -174 -71q-91 0 -150 58t-59 146z" />
<glyph unicode="&#x2026;" horiz-adv-x="1843" d="M209 37q0 35 23.5 57.5t56.5 22.5q29 0 46 -17.5t17 -46.5q0 -32 -23 -55t-55 -23q-29 0 -47 17.5t-18 44.5zM776 37q0 35 23.5 57.5t56.5 22.5q29 0 46.5 -17.5t17.5 -46.5q0 -33 -21.5 -55.5t-56.5 -22.5q-29 0 -47.5 17.5t-18.5 44.5zM1346 37q0 35 23 57.5t56 22.5 q29 0 46.5 -17.5t17.5 -46.5q0 -33 -21.5 -55.5t-56.5 -22.5q-29 0 -47 17.5t-18 44.5z" />
<glyph unicode="&#x202f;" horiz-adv-x="361" />
<glyph unicode="&#x2039;" horiz-adv-x="464" d="M78 485q-10 21 4 35l280 350q12 15 31 15h29q17 0 21 -9.5t-7 -21.5l-282 -358l170 -346q16 -29 -19 -29h-24q-20 0 -29 18z" />
<glyph unicode="&#x203a;" horiz-adv-x="464" d="M40 130.5q-4 9.5 7 21.5l281 358l-170 346q-16 29 18 29h25q19 0 28 -19l174 -344q9 -15 -4 -35l-278 -352q-11 -14 -31 -14h-29q-17 0 -21 9.5z" />
<glyph unicode="&#x205f;" horiz-adv-x="452" />
<glyph unicode="&#x20ac;" d="M78 487l4 27q3 23 27 23h81l37 223h-80q-25 0 -22 26l4 25q3 23 27 23h84l4 30q70 439 471 439q133 0 229 -58t139 -164q10 -23 -12 -32l-33 -15q-21 -9 -30 13q-70 178 -299 178q-165 0 -259.5 -96.5t-125.5 -294.5h493q31 0 21 -29l-11 -25q-9 -20 -28 -20h-486 l-34 -223h430q30 0 20 -29l-10 -27q-9 -20 -29 -20h-424l-4 -29q-8 -44 -8 -104q0 -275 289 -275q219 0 334 183q15 21 34 8l27 -17q19 -14 8 -34q-144 -218 -414 -218q-177 0 -272.5 89t-95.5 253q0 62 8 103l6 41h-78q-25 0 -22 26z" />
<glyph unicode="&#x2122;" horiz-adv-x="1552" d="M164 1321l2 18q3 21 22 21h463q24 0 21 -25l-2 -18q-3 -21 -23 -21h-198l-101 -641q-3 -20 -24 -20h-27q-24 0 -21 24l101 637h-193q-23 0 -20 25zM709 659l106 680q3 21 25 21h55q21 0 27 -19l168 -608h2l362 613q8 14 27 14h63q24 0 21 -25l-107 -680q-3 -20 -24 -20 h-27q-24 0 -21 24l97 611h-2l-367 -621q-8 -14 -27 -14h-18q-21 0 -27 18l-168 611h-2l-96 -609q-3 -20 -24 -20h-23q-23 0 -20 24z" />
<glyph unicode="&#x25fc;" horiz-adv-x="1003" d="M0 0v1004h1004v-1004h-1004z" />
</font>
</defs>
</svg>
